<svg width="33" height="9" viewBox="0 0 33 9" fill="none" xmlns="http://www.w3.org/2000/svg">
<path d="M29.9721 4.31463C27.3049 5.4875 24.9462 7.13041 21.9073 6.77383C20.3055 6.58608 18.7509 6.10657 17.1224 6.148C14.7567 6.20788 12.7702 7.73914 10.5507 8.34876C7.9603 9.06058 5.19467 7.80487 2.70647 7.1912C1.51995 6.93906 0.382897 6.02193 0.362551 4.77072C0.360702 3.52671 1.47371 2.70008 2.70694 3.00399C5.19467 3.61766 7.9603 4.87337 10.5511 4.16155C12.7707 3.55193 14.7572 2.02112 17.1228 1.96079C18.7514 1.91936 20.306 2.39887 21.9078 2.58662C24.9467 2.94275 27.3054 1.30029 29.9725 0.127419C31.1993 -0.250331 32.3646 0.201708 32.3613 1.61906C32.3992 2.9288 31.0675 3.84953 29.9725 4.31463H29.9721Z" fill="#FFF9EF"/>
</svg>
