<?xml version="1.0" encoding="UTF-8"?>
<svg id="_Åben_skal" data-name="Åben skal" xmlns="http://www.w3.org/2000/svg" viewBox="0 0 58.48 58.21">
  <defs>
    <style>
      .cls-1 {
        fill: #a0cbec;
      }

      .cls-1, .cls-2, .cls-3 {
        stroke-width: 0px;
      }

      .cls-2 {
        fill: #8fa5d5;
      }

      .cls-3 {
        fill: #345594;
      }
    </style>
  </defs>
  <g>
    <g>
      <path class="cls-1" d="m52.76,46.22c-.76,1.74-1.52,3.47-1.93,5.33-.06.26-.09.51-.1.77-.13,2.4-1.46,3.97-3.49,5.04-1.79.95-3.67,1.01-5.62.6-1.9-.4-3.85-.37-5.77-.51-1.79-.13-3.43-.68-4.93-1.61-1.18-.73-1.84-1.93-2.2-3.25-.66-2.4-2.37-3.65-4.68-4.07-1.19-.22-2.44-.12-3.67.03-2,.24-4.01.29-5.99-.16-1.71-.39-3-1.27-3.49-3.06-.05-.18-.14-.38-.09-.54.38-1.33-.35-2.45-.68-3.63-.34-1.22-.77-2.41-1.18-3.6-.56-1.62-1.76-2.63-3.24-3.36-.77-.38-1.53-.76-2.25-1.22-.96-.61-1.77-1.34-2.24-2.4-.3-1.43.02-2.79.53-4.12.47-1.25.31-2.5-.44-3.51-1.94-2.62-1.4-5.21-.17-7.87.81-1.73,2.02-3.1,3.65-4.07,1.2-.71,2.03-1.7,2.54-3,.34-.86.66-1.73,1.22-2.49.06-.07.12-.15.17-.22.06-.07.12-.13.18-.2.08.31.26.57.11.95-.31.77-.27.79.43,1.17.63.34.72.54.2.9-.63.44-.72,1.17-1.18,1.67-.24.26-.19.63-.14.96.03.21.22.4.38.29.58-.41,1.4-.2,1.9-.78.35-.41.7-.57.99.08.15.33.47.45.79.58-.15.6-.59,1.02-.93,1.5-1.02,1.42-2.31,2.61-3.25,4.1-.93,1.46-1.37,2.9-.98,4.67.48,2.21.77,4.46,1.07,6.71.15,1.13.59,2.05,1.38,2.84.58.58,1.15,1.17,1.72,1.75.87.89,1.5,1.91,1.93,3.09.68,1.84,1.31,3.71,2.56,5.29,1.4,1.76,2.97,3.21,5.22,3.76.58.14,1.15.33,1.73.44,1.84.34,3.6.95,5.29,1.71,1.52.69,2.85,1.65,3.44,3.31.32.89.86,1.64,1.31,2.45.2.36.45.69.83.89.89.47,1.79.93,2.81,1.02,2.11.18,4.19.65,6.31.8,2.27.17,2.89-.1,3.82-2.17.05-.1.09-.21.13-.31.77-2.01,1.48-4.05,2.31-6.03.84-1.99.76-4.06.4-6.05-.4-2.23-.49-4.43-.23-6.65.17-1.46.09-2.9-.14-4.33-.16-.99-.43-2.01-1.18-2.73-.95-.91-1.64-1.99-2.39-3.04-.81-1.12-1.3-2.35-1.58-3.73-.27-1.36-.45-2.79-1.12-4.05-.45-.85-1.05-1.62-1.43-2.49-.56-1.26-1.37-2.17-2.72-2.56-.42-.12-.82-.33-1.17-.61.23-.44.56-.56,1.02-.35.44.2.92.33,1.3.6.87.61,1.85,1.12,2.15,2.28.08.31.23.66.59.76.61.16.72.59.85,1.14.23,1.02,1.17,1.4,2.1.93.34-.17.67-.34,1.03-.06.43.33.66.09.86-.29.17-.31.16-.76.65-.82.02.03.05.07.05.1-.05,1.48.87,2.27,2.03,2.89.36.19.71.4,1.06.61,1.98,1.24,3.31,2.92,3.6,5.31-.05.22-.17.39-.31.57-.2.27-.12.57.21.54.66-.05,1.12.41,1.66.62.25-.35.15-.69.18-1.01.35.12.6.34.8.64.08.13.17.27.27.41.07.11.15.2.22.29,1.03,1.54.69,3.11.01,4.64-.63,1.43-1.6,2.66-2.46,3.95-.79,1.18-1.34,2.47-1.71,3.83-.25.91-.69,1.79-.62,2.77,0,.07,0,.14,0,.22-.02,1.06-.1,2.13-.06,3.19.03.68-.28,1.29-.25,1.95Z"/>
      <path class="cls-1" d="m12.36,10.91c-.31-.13-.64-.25-.79-.58-.29-.64-.64-.48-.99-.08-.5.58-1.32.37-1.9.78-.15.11-.34-.09-.38-.29-.06-.33-.11-.7.14-.96.46-.51.55-1.24,1.18-1.67.52-.36.43-.56-.2-.9-.7-.38-.74-.4-.43-1.17.15-.38-.04-.64-.11-.95.31-.53.83-.82,1.3-1.16,1.05-.74,1.83-1.8,2.93-2.47.11-.05.25-.11.39-.21.13-.08.24-.17.32-.25.11-.13.27-.18.43-.2.64.09,1.25-.04,1.86-.23.9-.27,1.79-.36,2.69.1.58.3,1.24.17,1.86.09.26-.03.31-.28.35-.51.3.03.61.07.91.1.12,0,.25.02.4.05.17.03.32.08.44.13.75.01,1.44.32,2.16.49,1.72.42,3.45.35,5.19.16,1.11-.12,2.2-.16,3.31.04,1.91.34,3.45,1.24,4.6,2.81.31.42.68.78.91,1.25-.35.05-.61.2-.35.57.19.28.39.56.39.89,0,.45-.56.26-.73.55-.04.06-.09.12-.14.17-.33.3-.62.55-1.15.24-.36-.21-.83.33-.6.69.49.75.03.97-.52,1.2l-.07-.05c-.09-.06-.19-.13-.28-.19-.1-.05-.21-.1-.32-.15-.11-.05-.22-.1-.32-.15-.2-.09-.42-.17-.6-.29-1.71-1.12-3.61-1.47-5.63-1.49-1.71-.01-3.42-.03-5.13-.13-1.56-.1-3.1.1-4.63.52-1.62.45-3.2.94-4.61,1.89-.12.08-.28.1-.41.15-.08.04-.15.07-.23.11-.14.07-.28.13-.42.18v-.02c-.07.08-.15.16-.23.24l.02-.02c-.08.08-.16.16-.24.24l.02-.02c-.08.09-.16.18-.24.26-.05.06-.11.13-.16.19Z"/>
      <path class="cls-1" d="m35.85,9.62c.55-.24,1.01-.46.52-1.2-.24-.36.24-.9.6-.69.53.32.81.06,1.15-.24.05-.05.1-.11.14-.17.17-.29.73-.1.73-.55,0-.33-.2-.61-.39-.89-.26-.37,0-.52.35-.57,1.38,1.32,3.19,1.45,4.92,1.79,1.07.21,2.08.48,2.92,1.23,1.53,1.38,1.64,3.16,1.41,5.02-.05.44-.1.88-.13,1.32-.48.06-.48.51-.65.82-.2.38-.43.62-.86.29-.37-.28-.69-.11-1.03.06-.93.47-1.87.1-2.1-.93-.13-.55-.24-.98-.85-1.14-.37-.09-.51-.45-.59-.76-.3-1.16-1.29-1.68-2.15-2.28-.39-.27-.87-.4-1.3-.6-.45-.21-.79-.09-1.02.35-.57-.26-1.17-.47-1.66-.89Z"/>
      <path class="cls-1" d="m21.02.28c-.04.22-.09.47-.35.51-.62.08-1.28.21-1.86-.09-.9-.46-1.79-.38-2.69-.1-.61.19-1.22.32-1.86.23C15.37.22,16.6.11,17.81.02c1.07-.08,2.15.08,3.21.26Z"/>
      <path class="cls-1" d="m56.58,24.33c-.03.32.08.66-.18,1.01-.56-.21-1.03-.67-1.73-.62-.34.02-.43-.28-.22-.54.14-.18.26-.35.32-.57.6.24,1.2.48,1.8.72Z"/>
    </g>
    <g>
      <path class="cls-2" d="m23.51,9.05c.54.07,1.07.14,1.61.21-.2.64-.73.57-1.2.5-.55-.08-1.12-.1-1.64-.24-1.24-.31-2.03.35-2.8,1.11-.19.18-.51.37-.34.75.17.37.49.53.87.62.29.06.56-.22.82-.06-.09,1.43-.66,2.54-1.91,3.26-.12.07-.22.21-.28.33-.09.18-.04.38.1.51.31.29.69.23,1.06.18.29-.04.54-.25.49-.52-.22-1.23.8-1.32,1.51-1.67.4-.19.83-.33,1.26-.43.29-.07.48-.53.89-.22.29.22.68.32.96.55.44.37.23.79.02,1.21-.22.43-.5.45-.92.28-.65-.25-1.11.02-1.31.68-.08.27.04.45.27.52.21.07.44.11.66.07,1.39-.2,2.62.32,3.86.81.3.12.78.21.77.55-.02.57.14.63.62.48.36-.11.6.13.86.37.79.72,1.52,1.5,2.56,1.94.48.2.59.12.96-.2.65-.58,1.29-1.04,1.26-2.04-.02-.7-.13-.89-.88-.85-.85.05-1.05-.09-.93-.89.07-.46,0-.7-.45-.84-.17-.05-.33-.17-.48-.27-.35-.23-.75-.51-.63-.95.14-.51.57,0,.85-.11.03-.01.08,0,.11-.02.79-.31,1.46-.03,2.06.45.26.21.53.29.82.16.63-.28,1.05,0,1.47.44.56.59,1.16,1.12,1.63,1.81.36.53.82.89.08,1.44-.16.12-.09.35.08.48.18.13.36.09.49-.08.17-.24.28-.54.49-.74.39-.38.34-.71-.02-1.04-.94-.85-.54-1.92-.63-2.94.37.03.48.31.73.28.48.96,1.1,1.83,1.48,2.84.2.55.61,1,.92,1.5.61.97,1.12,2.01,1.38,3.13.36,1.62,1.29,2.87,2.45,3.98.07.07.13.14.2.21,0,0,.03.04.03.04.02.17.09.31.23.42.34.9.7,1.79,1.03,2.7.68,1.88.47,3.8.16,5.71-.03.17-.12.29-.04.49.3.75.25,1.54.19,2.31-.14,1.57-.04,3.12.43,4.63.18.57.19,1.18.12,1.77-.21,1.74-.59,3.44-1.34,5.04-.32.68-.59,1.36-.62,2.12-.02.61-.34,1.06-.79,1.42-1.21.97-2.61,1.34-4.09.9-1.01-.31-2.03-.43-3.06-.57-.7-.09-1.42-.1-2.06-.44-1.18-.62-2.19-1.36-2.48-2.81-.24-1.19-1.03-2.05-2.08-2.63-1.53-.85-3.05-1.69-4.5-2.67-1.12-.76-2.47-1.01-3.79-1.27-1.56-.3-2.99-.87-4.3-1.76-1.38-.94-2.32-2.16-2.72-3.8-.4-1.64-1.17-3.13-1.97-4.6-.51-.94-1.23-1.69-2.1-2.27-2.05-1.37-2.65-3.34-2.24-5.63.23-1.28.15-2.42-.44-3.56-.72-1.39-.8-2.88-.28-4.31.4-1.11,1.06-2.11,2.09-2.81.82-.56,1.58-1.2,2.45-1.67,1.04-.57,1.61-1.6,2.41-2.4,1.67-1.66,3.65-2.31,5.94-2.21.07,0,.15.01.23.02.09,0,.18,0,.26,0,.29.06.58.13.87.19.09.03.18.07.28.1Zm-3.8,25.34c-.1.27-.12.52.1.75.25.41.58.78.75,1.22.53,1.38,1.58,2.23,2.82,2.89,2.86,1.51,5.8,2.86,8.8,4.07,2.35.95,4.3,2.36,5.22,4.86.11.28.32.49.57.67,1.28.93,2.89.93,4.14-.04,1.54-1.2,2.21-2.73,1.82-4.7-.27-1.35-.57-2.69-.61-4.07-.06-2.23-.14-4.46-.18-6.69-.01-.73-.13-1.46-.53-2.02-1.55-2.15-2.8-4.56-5.21-5.96-.25-.15-.45-.39-.69-.56-.39-.28-.77-.59-1.2-.81-1.02-.53-2.07-1.01-3.11-1.51-1.53-.74-3.1-1.37-4.33-2.67-.44-.46-.88-1.01-1.53-1.34-1.68-.86-3.33-.68-5.07-.22-1.46.39-2.39,1.39-3.09,2.54-.61.99-.91,2.19-1.24,3.33-.56,1.93.34,3.48,1.52,4.88.56.66.82,1.38,1.02,2.19.26,1.08-.01,2.15.03,3.22Z"/>
      <path class="cls-2" d="m39.29,14.93c-.25.03-.36-.25-.73-.28.1,1.02-.31,2.1.63,2.94.37.33.41.66.02,1.04-.21.2-.31.5-.49.74-.12.17-.31.21-.49.08-.17-.12-.25-.36-.08-.48.75-.55.28-.91-.08-1.44-.47-.69-1.06-1.22-1.63-1.81-.42-.44-.84-.72-1.47-.44-.29.13-.56.05-.82-.16-.61-.48-1.28-.76-2.06-.45-.03.01-.08,0-.11.02-.28.11-.71-.39-.85.11-.12.45.28.73.63.95.15.1.31.21.48.27.44.14.52.38.45.84-.12.8.08.94.93.89.74-.05.86.15.88.85.03,1-.62,1.46-1.26,2.04-.37.33-.48.41-.96.2-1.03-.44-1.76-1.22-2.56-1.94-.26-.24-.5-.49-.86-.37-.48.15-.64.09-.62-.48.01-.34-.47-.43-.77-.55-1.24-.49-2.47-1.01-3.86-.81-.21.03-.45,0-.66-.07-.23-.07-.35-.26-.27-.52.2-.66.66-.93,1.31-.68.42.16.7.14.92-.28.22-.42.42-.84-.02-1.21-.28-.23-.66-.33-.96-.55-.41-.31-.59.15-.89.22-.43.1-.87.24-1.26.43-.71.35-1.73.44-1.51,1.67.05.27-.21.47-.49.52-.37.05-.75.11-1.06-.18-.14-.14-.19-.33-.1-.51.07-.13.16-.26.28-.33,1.24-.72,1.82-1.83,1.91-3.26-.25-.16-.53.12-.82.06-.38-.09-.7-.25-.87-.62-.18-.38.15-.56.34-.75.77-.76,1.56-1.42,2.8-1.11.52.13,1.1.15,1.64.24.32.05.67.1.93-.09.01,0,.06-.05.11-.1.06-.07.09-.11.1-.16,0,0,0,0,0,0,.03-.06.05-.11.06-.15.02,0,.06,0,.1,0,0,0,1.07.09,2.12.14,1.3.06,1.84.14,2.77,0,1.48-.22,2.8.22,4.04.94,1.02.6,2.04,1.21,3.1,1.73.71.35,1.36.79,1.47,1.67,0,.03.02.13.08.25.06.1.11.13.19.25.06.08.09.15.14.26.05.1.1.24.15.41Z"/>
    </g>
    <path class="cls-3" d="m23.46,19.62c1.18.04,2.12.25,2.81,1.14.22.28.57.47.88.68.8.55,1.6,1.09,2.31,1.75,1.25,1.17,2.83,1.76,4.37,2.43,1.13.49,2.22,1.04,3.19,1.81.82.65,1.63,1.29,1.98,2.35.09.27.36.47.53.71.45.62,1,1.17.99,2.05,0,.4.34.72.58,1.06.55.75.94,1.65.57,2.51-.77,1.8-.53,3.56-.09,5.35.24,1,.26,2.07.84,2.98.21.33.12.72.02,1.09-.29,1.01-1.63,2.05-2.67,2.08-.57.02-1-.27-1.37-.65-.31-.32-.66-.62-.89-1-.78-1.27-2.07-1.99-3.14-2.96-.73-.66-1.7-.92-2.62-1.2-1.47-.44-2.87-1.02-4.13-1.92-.33-.24-.7-.43-1.07-.59-1.1-.48-2.02-1.21-2.95-1.97-1.32-1.08-1.9-2.42-1.93-4.08-.01-.56-.02-1.13-.17-1.66-.4-1.49-.71-3.02-1.69-4.28-.09-.12-.15-.26-.25-.37-1.38-1.61-1.14-3.3-.16-4.96.93-1.58,2.4-2.25,4.05-2.33Zm10.44,19.72c.14,0,.21,0,.29,0,2.11-.28,3.7-1.45,5.03-3.02.35-.41.23-1.3-.18-1.77-.39-.45-.86-.83-1.44-1.02-1.81-.59-4.49-.34-5.89,1.69-.27.4-.56.79-.8,1.2-.51.88-.33,1.61.54,2.18.76.5,1.58.82,2.45.74Z"/>
  </g>
  <path class="cls-2" d="m27.05,17.8c-.28-.14-.56-.28-.86-.4-4.11-1.73-8.43-.63-11.19.45,1.63-2.94,3.25-5.89,4.88-8.83,1.15-.01,2.69.02,4.49.2,0,0,.44.04,1.08.13,1.23.16,1.76.28,2.3.36,1.86.27,2.14-.22,3.72.01.89.13,1.48.38,2.47.81,1.16.5,2.81,1.36,4.61,2.84,3.18,10.7,2.3,12.64,1.53,13.03-1.01.51-2.18-1.51-7.31-4.21-1.6-.84-3.43-1.67-3.9-2.98-.08-.21-.31-.98-.98-1.29-.32-.15-.64-.14-.86-.12Z"/>
  <path class="cls-1" d="m47.46,19.93c-1.02.41-2.03.83-3.05,1.24-.1-.55-.17-1-.22-1.3-.2-1.24-.24-1.58-.41-2.13-.12-.37-.24-.63-.48-1.14-.76-1.64-1.18-2.05-1.84-3.49-.43-.93-.29-1.07-.58-1.38-.57-.6-1.24-.49-2.5-1.01-.57-.23-.59-.32-1.58-.86-1.95-1.07-2.47-1.06-4.17-1.99-1.44-.79-2.17-1.19-2.32-1.69-.58-1.89,3.06-4.87,4.51-4.4.09.03.52.18,1.02.5.44.28.76.58.92.74.14.13.24.24.3.3.73.78,1.42,1.54,1.78,1.91.36.36.89.85,1.62,1.35.59.05,1.42.15,2.39.4,1.79.46,3.41.87,4.42,2.17,1.34,1.72.88,4.03.74,4.64-.18,1.41.15,2.24.47,2.75.63.96,1.47,1,2.67,2.33.44.49,1.28,1.42,1.06,1.83-.19.34-1.17.43-4.75-.78Z"/>
  <path class="cls-1" d="m21.19,1.96h-7.54c.2-.38.41-.76.61-1.14.75-.25,1.68-.48,2.74-.62,1.64-.2,3.05-.09,4.09.08.03.56.06,1.12.1,1.68Z"/>
  <path class="cls-1" d="m8.37,15.88c-1.54-.36-3.08-.72-4.62-1.08.04-1.94.65-3.01,1.19-3.62.57-.65,1.06-.78,1.68-1.51.86-1.01,1.13-2.19,1.23-3,.17-.3.41-.71.72-1.19.19-.29.23-.35.3-.39.54-.27,1.72,1.03,2.35,1.78,3.15.82,3.76,1.41,3.75,1.79-.02.49-1.05.59-2.3,1.76-.68.64-.89,1.1-1.52,2.03-.58.85-1.47,2.05-2.78,3.41Z"/>
</svg>