<?xml version="1.0" encoding="UTF-8"?>
<svg id="_Østers_1" data-name="Østers 1" xmlns="http://www.w3.org/2000/svg" viewBox="0 0 65.51 78.11">
  <defs>
    <style>
      .cls-1 {
        fill: #fdd4a4;
        stroke-width: 0px;
      }
    </style>
  </defs>
  <path class="cls-1" d="m49.18,17.04c-1.3-1.18-2.61-1.21-4.09-.3-5.54,3.41-10.33,7.6-14.47,12.49-2.69,3.17-5.25,6.44-7.88,9.66-1.47,1.81-3.13,3.43-5.05,4.82-.99.72-1.88,1.58-2.78,2.41-1.9,1.74-3.66,3.61-5.76,5.18-2.14,1.59-3.48,3.78-3.88,6.42-.24,1.56-.39,3.13-.57,4.69-.04.36-.04.73,0,1.09.4,4.11,3.5,5.9,7.52,4.36,3.62-1.39,6.52-3.54,8.25-6.99.71-1.41,1.71-2.64,2.69-3.9,1.11-1.43,2.12-2.93,2.98-4.56,3.3-6.22,6.67-12.43,10.57-18.32,2.69-4.06,5.62-8.02,9.39-11.2,1.97-1.66,2.99-3.45,3.03-5.89l.03.04Z"/>
  <path class="cls-1" d="m.16,35.33c-.35,1.74-.09,3.36.52,5.04.86,2.38,2.8,3.4,5.01,4.13.55.18,1.27.11,1.85-.04,3.08-.78,5.93-1.99,8.25-4.15,3.87-3.61,7.55-7.37,11.06-11.32,3.32-3.75,6.88-7.37,11.32-10,1.06-.63,2.21-1.14,3.32-1.69,1.08-.53,1.76-1.33,1.9-2.52.13-1.05-.69-1.93-1.79-1.85-.75.05-1.53.11-2.24.31-2.08.57-4.23.7-6.37.71-3.4.01-6.52.92-9.27,2.68-3.06,1.96-6.42,3.29-9.69,4.81-2.37,1.1-4.74,2.15-6.97,3.52-3.99,2.45-5.71,6.24-6.89,10.39Z"/>
  <path class="cls-1" d="m17.76,70.96c-.45,1.98-.21,3.72,1.14,5.25,1.45,1.64,3.14,2.33,5.38,1.63,2.2-.69,3.97-1.67,5.44-3.55,2.05-2.63,3.83-5.32,4.95-8.43.7-1.94,1.62-3.78,2.59-5.61.91-1.71,1.54-3.54,2.06-5.43.64-2.32,1.5-4.6,2.49-6.8,1.64-3.65,3.35-7.26,4.72-11.03.57-1.58,1.54-3.03,2.3-4.55.76-1.52,1.51-3.04,2.21-4.59.47-1.05.39-2.12-.2-3.16-.56-.99-1.68-1.27-2.51-.49-.99.92-1.92,1.9-2.82,2.91-3.66,4.11-7.38,8.17-9.96,13.07-.9,1.71-2.11,3.27-3.13,4.93-1.26,2.08-2.62,4.12-3.67,6.31-2.47,5.17-5.59,9.96-8.78,14.73-1.02,1.53-1.99,3.07-2.22,4.82Z"/>
  <path class="cls-1" d="m57.5,56.97c.6-4.29.71-8.22-.11-12.25-.55-2.71-1.05-5.48-.98-8.31.04-1.55-.43-3.13-.71-4.69-.12-.66-.6-1.05-1.26-1.23-.8-.22-1.57-.09-2.04.55-.57.78-1.15,1.62-1.45,2.53-2.49,7.62-5.93,14.87-8.78,22.35-1.14,2.99-1.55,6.1-.73,9.31,1.15,4.48,5.36,6.13,9.3,3.5,1.65-1.1,3-2.52,4.03-4.23,1.46-2.44,2.56-4.98,2.72-7.53Z"/>
  <path class="cls-1" d="m49.15,17c1.82.5,2.15,2.01,2.31,3.43.23,2.01,1.02,3.76,2.14,5.41,1.57,2.34,3.58,2.95,6.18,1.83,2.11-.91,3.82-2.26,4.91-4.28.84-1.57,1.08-3.21.51-4.93-.6-1.81-2.13-2.78-4.08-2.37-1.49.32-2.98.38-4.49.45-.52.02-.87-.6-.55-1.05,2.08-2.95,3.34-6.19,3.74-9.76.15-1.36.09-2.67-.52-3.93-.78-1.6-1.98-2.12-3.7-1.63-.24.07-.48.13-.72.22-3.87,1.5-7.4,7.01-7.15,11.05.06.88.3,1.65.65,2.45.44,1,1.05,1.98.8,3.14,0,0-.03-.04-.03-.04Z"/>
</svg>