<svg width="34" height="34" viewBox="0 0 34 34" fill="none" xmlns="http://www.w3.org/2000/svg">
<path d="M10.0002 0.333374H24.0002C29.3335 0.333374 33.6668 4.66671 33.6668 10V24C33.6668 26.5638 32.6484 29.0226 30.8355 30.8354C29.0227 32.6483 26.5639 33.6667 24.0002 33.6667H10.0002C4.66683 33.6667 0.333496 29.3334 0.333496 24V10C0.333496 7.43628 1.35195 4.97753 3.1648 3.16468C4.97765 1.35182 7.4364 0.333374 10.0002 0.333374ZM9.66683 3.66671C8.07553 3.66671 6.54941 4.29885 5.42419 5.42407C4.29897 6.54929 3.66683 8.07541 3.66683 9.66671V24.3334C3.66683 27.65 6.35016 30.3334 9.66683 30.3334H24.3335C25.9248 30.3334 27.4509 29.7012 28.5761 28.576C29.7014 27.4508 30.3335 25.9247 30.3335 24.3334V9.66671C30.3335 6.35004 27.6502 3.66671 24.3335 3.66671H9.66683ZM25.7502 6.16671C26.3027 6.16671 26.8326 6.3862 27.2233 6.7769C27.614 7.1676 27.8335 7.69751 27.8335 8.25004C27.8335 8.80258 27.614 9.33248 27.2233 9.72318C26.8326 10.1139 26.3027 10.3334 25.7502 10.3334C25.1976 10.3334 24.6677 10.1139 24.277 9.72318C23.8863 9.33248 23.6668 8.80258 23.6668 8.25004C23.6668 7.69751 23.8863 7.1676 24.277 6.7769C24.6677 6.3862 25.1976 6.16671 25.7502 6.16671ZM17.0002 8.66671C19.2103 8.66671 21.3299 9.54468 22.8927 11.1075C24.4555 12.6703 25.3335 14.7899 25.3335 17C25.3335 19.2102 24.4555 21.3298 22.8927 22.8926C21.3299 24.4554 19.2103 25.3334 17.0002 25.3334C14.79 25.3334 12.6704 24.4554 11.1076 22.8926C9.5448 21.3298 8.66683 19.2102 8.66683 17C8.66683 14.7899 9.5448 12.6703 11.1076 11.1075C12.6704 9.54468 14.79 8.66671 17.0002 8.66671ZM17.0002 12C15.6741 12 14.4023 12.5268 13.4646 13.4645C12.5269 14.4022 12.0002 15.674 12.0002 17C12.0002 18.3261 12.5269 19.5979 13.4646 20.5356C14.4023 21.4733 15.6741 22 17.0002 22C18.3262 22 19.598 21.4733 20.5357 20.5356C21.4734 19.5979 22.0002 18.3261 22.0002 17C22.0002 15.674 21.4734 14.4022 20.5357 13.4645C19.598 12.5268 18.3262 12 17.0002 12Z" fill="#F3747B"/>
</svg>
