<svg width="34" height="34" viewBox="0 0 34 34" fill="none" xmlns="http://www.w3.org/2000/svg">
<path fill-rule="evenodd" clip-rule="evenodd" d="M12.7152 11.9484H18.9052V15.0317C19.7968 13.2584 22.0835 11.665 25.5185 11.665C32.1035 11.665 33.6668 15.195 33.6668 21.6717V33.6667H27.0002V23.1467C27.0002 19.4584 26.1085 17.3784 23.8385 17.3784C20.6902 17.3784 19.3818 19.62 19.3818 23.145V33.6667H12.7152V11.9484ZM1.2835 33.3834H7.95016V11.665H1.2835V33.3834ZM8.90516 4.58338C8.90541 5.14217 8.79459 5.69543 8.57914 6.21102C8.36369 6.72661 8.04792 7.19423 7.65016 7.58671C7.25123 7.98357 6.77801 8.29794 6.25753 8.51185C5.73706 8.72575 5.17954 8.83501 4.61683 8.83338C3.48283 8.83083 2.39502 8.38385 1.58683 7.58838C1.19066 7.19445 0.87605 6.72629 0.66099 6.21066C0.44593 5.69503 0.334643 5.14206 0.333496 4.58338C0.333496 3.45504 0.783496 2.37504 1.5885 1.57838C2.39467 0.779845 3.48379 0.332334 4.6185 0.333376C5.75516 0.333376 6.84516 0.781709 7.65016 1.57838C8.45516 2.37504 8.90516 3.45504 8.90516 4.58338Z" fill="#F3747B"/>
</svg>
