<svg width="50" height="46" viewBox="0 0 50 46" fill="none" xmlns="http://www.w3.org/2000/svg">
<path d="M5.3423 11.1596C5.3423 10.0349 6.04097 8.99543 7.40422 8.99543C9.39799 8.99543 9.39799 11.3641 11.1021 11.3641C11.903 11.3641 12.7891 10.8529 12.7891 9.59185C12.7891 5.97922 6.12617 8.50125 6.12617 4.15586C6.12617 1.88944 8.17106 0.918119 10.1648 0.918119C12.1415 0.918119 13.9138 1.97465 13.9138 3.49127C13.9138 4.39443 13.2662 4.76933 12.6528 4.76933C10.9828 4.76933 11.6814 1.7872 9.87513 1.7872C9.07422 1.7872 8.81861 2.29842 8.81861 2.80964C8.81861 5.28055 14.6295 6.04738 14.6295 10.069C14.6295 11.2789 14.0842 12.5058 12.2438 12.5058C10.8124 12.5058 9.80697 13.5964 8.22218 13.5964C6.84188 13.5964 5.3423 12.7955 5.3423 11.1596ZM16.3416 9.89859C16.3416 8.00706 15.6088 7.46176 15.6088 6.42228C15.6088 4.70116 17.79 3.7128 19.6986 3.7128C21.9139 3.7128 23.3112 4.85453 23.3112 7.00166C23.3112 8.26268 24.1292 9.18288 24.1292 10.2905C24.1292 12.0798 21.7094 13.6135 19.6986 13.6135C17.1766 13.6135 16.3416 11.8583 16.3416 9.89859ZM17.9775 7.95594C17.9775 9.47257 18.4205 11.1426 19.5111 11.1426C20.5165 11.1426 20.6358 9.76226 20.6358 8.82502C20.6358 7.58105 21.2663 6.96758 21.2663 6.30299C21.2663 5.60432 20.6017 5.24647 19.9031 5.24647C18.6761 5.24647 17.9775 6.50748 17.9775 7.95594ZM27.2253 3.90025C28.1625 3.90025 28.4522 4.42851 28.4863 5.34871C28.7419 4.73524 29.1849 4.30923 30.0029 4.30923C30.9061 4.30923 31.315 4.87157 31.5025 5.51912C31.8092 4.59892 32.3886 3.798 33.4281 3.798C34.3824 3.798 35.1151 4.42851 35.1151 5.74065C35.1151 7.29135 36.5636 8.62053 36.5636 11.0574C36.5636 13.017 35.5071 13.5964 34.5869 13.5964C33.5985 13.5964 32.8828 12.9489 32.8828 11.7901C32.8828 10.3076 34.0075 9.14879 34.0075 7.51288C34.0075 6.86534 33.7859 5.91105 32.7294 5.91105C31.9626 5.91105 31.6729 6.4734 31.6559 7.27431C31.6559 8.8591 32.6442 9.50665 32.6442 10.9892C32.6442 11.9946 32.15 12.9148 31.0083 12.9148C30.054 12.9148 29.3383 12.2672 29.3383 11.1596C29.3383 9.96675 30.1222 9.3192 30.1222 8.19451C30.1222 7.37656 29.7132 6.86534 29.0827 6.86534C28.5715 6.86534 28.1795 7.22319 28.1625 7.68329C28.1625 8.68869 28.6567 9.54073 28.6567 10.8869C28.6567 12.165 28.1795 13.426 26.9185 13.426C25.9813 13.426 25.1122 12.7785 25.1122 11.3811C25.1122 9.76226 26.1517 9.16583 26.1517 7.24023C26.1517 6.57564 25.9983 5.57024 25.9983 5.11014C25.9983 4.46259 26.3562 3.90025 27.2253 3.90025ZM45.1593 10.8699C45.1593 12.5399 42.9951 13.4431 41.3422 13.4431C39.178 13.4431 38.3941 11.9605 38.3941 10.1542C38.3941 8.55237 37.5932 7.9389 37.5932 6.72901C37.5932 5.04198 39.2462 3.88321 41.3422 3.88321C43.6938 3.88321 44.4436 5.29759 44.4436 6.49044C44.4436 8.21155 42.6373 9.38736 40.2004 9.7793C40.2516 11.1937 40.9332 11.6367 41.4955 11.6367C42.6714 11.6367 42.5521 9.55777 43.9835 9.55777C44.6992 9.55777 45.1593 10.1201 45.1593 10.8699ZM40.1834 8.41604C41.1547 8.19451 42.0749 7.61513 42.0749 7.05278C42.0749 6.76309 41.8534 6.42228 41.3422 6.42228C40.3879 6.42228 40.2004 7.42768 40.1834 8.41604ZM12.4044 21.5532C12.4044 23.9219 13.2905 24.6035 13.2905 25.9156C13.2905 28.0628 10.6492 29.3067 8.31457 29.3067C5.6051 29.3067 3.91806 27.8753 3.91806 25.1829C3.91806 23.5981 2.91266 22.4564 2.91266 21.059C2.91266 18.8267 5.86071 16.9011 8.31457 16.9011C11.3819 16.9011 12.4044 19.0993 12.4044 21.5532ZM5.97999 22.303C5.97999 24.3649 5.50285 26.3757 8.14417 26.3757C9.4563 26.3757 11.0752 25.6089 11.0752 23.9389C11.0752 22.2007 9.30294 21.7918 9.30294 20.224C9.30294 19.4572 8.77467 18.7415 7.66703 18.7415C5.75846 18.7415 5.97999 20.65 5.97999 22.303ZM16.2376 24.7569C16.2376 26.2394 16.9874 26.5973 17.5327 26.5973C18.8448 26.5973 18.8107 24.3308 20.2762 24.3308C21.1453 24.3308 21.6906 25.0977 21.6906 26.3757C21.6906 28.0457 20.3444 29.1534 18.3166 29.1534C16.408 29.1534 14.6698 28.2672 14.6698 25.6941C14.6698 24.2456 15.1811 22.9676 15.3515 21.6554C15.2151 21.7066 15.0618 21.7236 14.8914 21.7236C14.2949 21.7236 14.1075 21.3146 14.1075 20.9568C14.1075 20.5989 14.2949 20.1559 14.9595 20.1559C15.0959 20.1559 15.2322 20.1729 15.3685 20.207C15.3003 19.5254 15.1811 18.8778 15.1811 18.5199C15.1811 18.0598 15.4196 17.4464 16.2717 17.4464C17.4304 17.4464 17.8905 18.537 17.8905 19.4913C17.8905 19.7298 17.8565 19.9684 17.7883 20.207C18.0269 20.1218 18.2654 20.0536 18.5381 20.0536C19.1686 20.0536 19.6798 20.4285 19.6798 21.0761C19.6798 21.6725 19.2197 21.9622 18.7085 21.9622C18.1291 21.9622 17.7712 21.5873 17.3623 21.3487C16.8851 22.3882 16.2376 23.4618 16.2376 24.7569ZM24.5242 28.9148C23.7744 28.9148 23.212 28.3695 23.212 27.2959C23.212 26.4098 23.604 25.7111 23.604 24.5012C23.604 22.3712 22.4622 21.6043 22.4622 19.1675C22.4622 17.2078 23.178 16.2876 24.1663 16.2876C25.717 16.2876 25.8363 18.5711 25.8363 19.815C25.8363 20.3774 25.8022 20.8716 25.7511 21.3317C26.126 20.5648 26.6883 19.9684 27.4552 19.9684C28.2391 19.9684 28.9207 20.5989 28.9207 21.9111C28.9207 23.4618 30.5396 24.2797 30.5396 27.0574C30.5396 28.6762 29.8238 29.3067 28.7162 29.3067C27.9153 29.3067 26.978 28.8978 26.978 27.6367C26.978 26.4268 27.796 25.7623 27.796 24.4842C27.796 23.6151 27.37 22.6949 26.5691 22.6949C25.9386 22.6949 25.308 23.2573 25.2569 24.2968V24.416C25.2569 25.5407 26.126 26.0008 26.126 27.1937C26.126 28.2843 25.3762 28.9148 24.5242 28.9148ZM39.1351 26.8699C39.1351 28.5399 36.971 29.4431 35.318 29.4431C33.1538 29.4431 32.37 27.9605 32.37 26.1542C32.37 24.5524 31.5691 23.9389 31.5691 22.729C31.5691 21.042 33.222 19.8832 35.318 19.8832C37.6696 19.8832 38.4194 21.2976 38.4194 22.4904C38.4194 24.2116 36.6131 25.3874 34.1763 25.7793C34.2274 27.1937 34.909 27.6367 35.4714 27.6367C36.6472 27.6367 36.5279 25.5578 37.9593 25.5578C38.675 25.5578 39.1351 26.1201 39.1351 26.8699ZM34.1592 24.416C35.1306 24.1945 36.0508 23.6151 36.0508 23.0528C36.0508 22.7631 35.8292 22.4223 35.318 22.4223C34.3637 22.4223 34.1763 23.4277 34.1592 24.416ZM42.3031 19.9002C43.1211 19.9002 43.53 20.5308 43.53 21.6214C43.53 21.7577 43.513 21.877 43.513 21.9792C43.922 21.0761 44.6718 20.3092 45.7965 20.3092C46.9552 20.3092 47.7902 21.0761 47.7902 22.3882C47.7902 23.6833 47.0745 24.7909 46.1543 24.7909C44.7399 24.7909 45.0126 22.5245 44.0754 22.5245C43.7175 22.5245 43.2233 22.8824 43.2063 23.6833C43.2063 24.6887 43.7005 25.5407 43.7005 26.9722C43.7005 28.165 43.1892 29.426 41.9282 29.426C40.991 29.426 40.156 28.7785 40.156 26.8529C40.156 25.4214 40.9569 23.5981 40.9569 21.5191C40.9569 20.4456 41.5192 19.9002 42.3031 19.9002ZM8.28522 34.0939C9.76776 34.0939 10.2619 35.3379 10.2619 36.9568C10.2619 39.9389 10.688 40.8421 11.2673 40.8421C11.557 40.8421 11.9149 40.6376 11.9149 39.6322C11.9149 38.4052 11.3355 37.3658 11.3355 35.781C11.3355 34.111 11.7274 32.7307 13.3293 32.7307C14.5732 32.7307 15.289 33.5997 15.289 35.5935C15.289 37.9963 14.5221 44.9318 10.8584 44.9318C9.51215 44.9318 9.40991 43.9094 9.40991 41.7452C9.40991 39.7344 8.94981 39.3425 8.57491 39.3425C7.96144 39.3425 7.63767 40.382 7.63767 42.5632C7.63767 44.7273 7.05829 45.4431 5.88247 45.4431C2.04831 45.4431 0.940662 38.5075 0.940662 36.1047C0.940662 34.111 1.67341 33.2419 2.91739 33.2419C4.51922 33.2419 5.57574 34.6222 5.57574 36.0025C5.57574 38.2178 3.32636 39.0528 3.32636 40.9613C3.32636 41.7963 3.8035 42.3416 4.41697 42.3416C5.86543 42.3416 6.30849 39.9389 6.30849 36.9568C6.30849 35.3379 6.80267 34.0939 8.28522 34.0939ZM16.3173 38.32C16.3173 36.3263 17.9361 35.4231 19.7765 35.4231C22.1452 35.4231 23.2699 37.2635 23.2699 39.8537C23.2699 42.3416 24.5309 42.9722 24.5309 44.2843C24.5309 45.1704 23.9345 45.5453 23.3721 45.5453C22.6053 45.5453 22.1622 44.8978 21.9407 43.5856C21.5658 44.5058 20.7479 45.4431 19.2312 45.4431C17.2715 45.4431 16.5388 44.0287 16.5388 42.9722C16.5388 40.3308 20.816 39.8707 20.816 38.1326C20.816 37.7066 20.5774 37.3828 20.1173 37.3828C18.8904 37.3828 19.2142 39.7685 17.5953 39.7685C17.1182 39.7685 16.3173 39.547 16.3173 38.32ZM20.6797 41.1999C20.0662 41.1999 19.5039 41.8645 19.5039 42.6313C19.5039 43.313 19.9129 43.5345 20.2878 43.5345C21.5317 43.5345 21.8725 41.1999 20.6797 41.1999ZM32.8546 37.2124C32.8546 39.4618 30.7245 45.426 28.6285 45.426C26.5836 45.426 25.05 39.4618 25.05 37.6384C25.05 36.633 25.5442 36.2411 26.1576 36.2411C28.4752 36.2411 27.5379 42.1883 29.1568 42.1883C29.6169 42.1883 29.9066 41.6941 29.9066 40.9443C29.9066 40.0411 29.5317 38.7972 29.5317 37.7066C29.5317 35.8491 30.6223 35.5254 31.2869 35.5254C32.2582 35.5254 32.8546 36.1218 32.8546 37.2124ZM41.2735 42.8699C41.2735 44.5399 39.1094 45.4431 37.4564 45.4431C35.2922 45.4431 34.5084 43.9605 34.5084 42.1542C34.5084 40.5524 33.7075 39.9389 33.7075 38.729C33.7075 37.042 35.3604 35.8832 37.4564 35.8832C39.808 35.8832 40.5578 37.2976 40.5578 38.4904C40.5578 40.2116 38.7515 41.3874 36.3147 41.7793C36.3658 43.1937 37.0474 43.6367 37.6098 43.6367C38.7856 43.6367 38.6663 41.5578 40.0977 41.5578C40.8134 41.5578 41.2735 42.1201 41.2735 42.8699ZM36.2977 40.416C37.269 40.1945 38.1892 39.6151 38.1892 39.0528C38.1892 38.7631 37.9676 38.4223 37.4564 38.4223C36.5021 38.4223 36.3147 39.4277 36.2977 40.416ZM42.2092 43.2959C42.2092 42.5461 42.6863 41.9497 43.5724 41.9497C45.2765 41.9497 45.6685 43.9776 46.6568 43.9776C47.4407 43.9776 47.7133 42.5461 47.7133 41.8645C47.7133 38.8313 42.9249 41.5237 42.9249 38.1496C42.9249 36.3944 44.3734 35.781 45.9922 35.781C47.5941 35.781 49.0425 36.5989 49.0425 37.7747C49.0425 38.4734 48.5143 38.7631 48.003 38.7631C46.9295 38.7631 46.4183 37.5021 45.5321 37.5021C45.0891 37.5021 44.8846 37.8429 44.8846 38.0644C44.8846 39.2402 49.6219 39.7515 49.6219 42.8699C49.6219 44.3013 48.5313 45.5964 46.0945 45.5964C44.8164 45.5964 42.2092 45.0852 42.2092 43.2959Z" fill="#FFF9EF"/>
</svg>
