<?xml version="1.0" encoding="UTF-8"?>
<svg id="Søstjerne_1" data-name="Søstjerne 1" xmlns="http://www.w3.org/2000/svg" viewBox="0 0 130.64 183.78">
  <defs>
    <style>
      .cls-1 {
        fill: none;
      }

      .cls-1, .cls-2, .cls-3 {
        stroke-width: 0px;
      }

      .cls-2 {
        fill: #cf7f8a;
      }

      .cls-3 {
        fill: #db7f89;
      }
    </style>
  </defs>
  <path class="cls-3" d="m78.03,68.87c.3.11,1.02.35,2.8.67,3.53.63,6.79.75,8.79.68,9.14-.31,19.79-4.97,19.79-4.97,9.81-4.3,11.89-7.78,15.67-6.44,3.6,1.27,6.36,6.06,5.33,9.46-.75,2.48-3.4,3.79-5.45,4.81-3.65,1.81-6.97,1.97-7.49,2-16.73.99-27.63,14-27.63,14-7.6,8.79-8.24,25.33-7.85,28.92,1.14,10.5,3.95,9.46,4.57,19.89.4,6.78-.67,8.93.19,17.84.61,6.29.91,9.43,2.27,12.95,2.42,6.26,6.29,10.37,4.63,12.84-.64.96-1.99,1.47-2.72,1.75,0,0-2.28.87-4.67.34-3.73-.83-5.46-8.58-7.15-16.65-2.28-10.88-3.2-16.1-4.85-23.48,0,0-1.34-6.01-4.92-16.85-3.28-9.92-4.99-11.25-6.38-11.39-1.38-.13-2.27,1.02-8.88,9.38-5.81,7.35-6.06,7.64-6.73,8.76-1.78,2.97-2.02,4.03-5.51,12.86-3.91,9.88-5.19,11.54-7.09,12.03-2.26.57-5.09-.5-6.2-2.41-1.75-3.02,1.1-7.67,2.18-9.5.9-1.52,21.32-36.31,14.16-46.01-1.05-1.42-1.08-.14-16.47-4.35-10.99-3.01-13.58-4.38-17.62-3.82-.74.1-2.72.43-4.94-.39-2.96-1.09-4.38-3.52-4.6-3.91-.39-.69-1.95-3.47-.93-5.1,1.17-1.86,5.07-1.25,8.07-.89,10.8,1.3,19.61.51,23.77-.14,5.38-.83,11.39-1.76,14.8-6.53,2.07-2.9,2.34-6.05,2.66-9.78.46-5.39-.54-9.53-1.89-14.94-1.71-6.84-2.34-6.1-3.87-12.44-1.07-4.42-.65-4.31-2.54-15-.6-3.36-1.09-6.75-1.74-10.1-1.34-6.91-2.22-9.72-.58-11.51,1.12-1.22,3.21-1.73,4.89-1.3,4.6,1.18,4.72,9.08,8.55,21.85,4.22,14.11,5.98,10.83,10.88,26.32,0,0,2.98,9.41,8.32,15.84,2.57,3.1,5.04,4.24,6.39,4.71Z"/>
  <path class="cls-1" d="m82.86,133.78c-.84.42-3.62-3.02-5.9-6.69-8.45-13.65-6.22-24.72-9.85-25.76-5.9-1.7-18.99,25.58-20.16,24.98-.94-.48,12.04-18.75,6.02-28.4-5.51-8.83-26.2-9.22-30.87-9.31-3.76-.07-11.42.12-11.53-.85-.01-.1.04-.38,1.31-.87,6.78-2.61,21.13-.65,31.67-4.29,2.52-.87,9.39-3.24,11.52-8.98,1.29-3.48-.33-5.88-1.71-12.57-2.3-11.14-4.3-25.35-3.01-25.69.5-.13,1.43,1.84,2.06,3.21,6.66,14.54,7.08,21,11.52,28.57,2.79,4.76,6.53,11.14,12.69,12.11,7.85,1.24,15.56-6.96,16.46-5.84.55.68-2.23,3.79-3.18,4.85-11.71,12.99-13.41,13.7-14.97,16.07-8.41,12.73,9.99,38.42,7.94,39.45Z"/>
  <path class="cls-2" d="m90.36,80.35c5.24-2.17,8.95-3.89,8.95-3.89,10.87-5.01,13.97-6.06,13.81-6.59-.16-.52-3.49.08-10.15,1.31-11.09,2.04-13.35,3.13-15.22,4.47-3.6,2.57-6.25,6.4-5.58,7.29.29.38,1.23.29,8.19-2.59Z"/>
  <path class="cls-2" d="m30.15,86.23c-9.43-1.81-17.88.77-17.83,1.51.05.72,8.06-.53,21.14,1.83,5.3.96,8.56,1.99,8.7,1.59.19-.56-5.46-3.67-12.02-4.93Z"/>
  <path class="cls-2" d="m60.03,69.81c-.86-.25-1.4-4.42-4.11-10.05-2.6-5.42-3.88-5.28-4.78-8.65-.9-3.4.08-4.7-1.26-9.59-.46-1.69-.76-2.2-1.22-3.57-2.37-7.17-1.22-14.71-.19-14.25.64.29.88,3.56,3.81,13.58.62,2.12,1.3,4.26,2.65,8.55,1.55,4.9,2.71,9.86,4.48,14.71.49,1.34,1.38,3.71,1.4,6.23.01,1.24-.17,3.23-.79,3.05Z"/>
  <path class="cls-2" d="m80.19,153.76c-.15,0-.25-.32-1.26-5.97-.45-2.52-.67-3.78-.78-4.41-.32-1.99-1.58-9.72-2.54-14.59-1.88-9.51-4.1-15.49-3.56-15.68.28-.1,1.1,1.51,1.42,2.15,1.39,2.74,1.8,5.07,1.98,5.95.96,4.64,2.94,4.78,4.74,9.96,1.06,3.05,1.22,5.42,1.42,8.61.47,7.19-.74,14.01-1.43,14Z"/>
  <path class="cls-2" d="m50.57,124.9c-2.78,3.52-3.61,3.36-5.82,6.07-2.46,3.02-3.8,6.13-5.28,9.55-.73,1.69-.59,1.59-1.14,2.76-1.88,4-4.87,8.02-5.5,7.84-.9-.25,2.54-9.09,5.85-14.65,1.34-2.25,2.73-4.49,2.73-4.49,2.57-4.13,2.59-3.89,3.24-5.16,1.97-3.85,1.32-5.1,2.96-6.36,1.84-1.42,4.91-1.56,5.54-.48.54.94-.81,2.68-2.58,4.92Z"/>
  <path class="cls-2" d="m65.65,96.94c-3.55-1.9-11.52,6.89-12.39,6.05-.94-.91,8.6-10.99,6.55-13.76-1.52-2.06-8.34,1.47-13.07-2.11-.82-.62-.92-.96-.89-1.19.33-1.98,12.07.91,15.7-4.1,2.05-2.84-.55-8.01,1.26-8.77.32-.13.61-.07.92,0,3.05.67,2.84,5.35,5.98,7.85,3.31,2.63,7.52.59,8.18,2.37.68,1.83-3.74,3.51-4.3,8.09-.3,2.44.85,2.88.83,5.56-.04,5.21-4.42,10.2-6.19,9.65-2.01-.63.31-8.08-2.59-9.63Z"/>
</svg>