<svg width="261" height="63" viewBox="0 0 261 63" fill="none" xmlns="http://www.w3.org/2000/svg">
<path d="M44.12 29.97C45.18 27.35 46.67 25.07 48.59 23.13C50.51 21.19 52.77 19.67 55.37 18.57C57.97 17.47 60.79 16.92 63.83 16.92C66.87 16.92 69.74 17.47 72.32 18.57C74.9 19.67 77.15 21.19 79.07 23.13C80.99 25.07 82.48 27.35 83.54 29.97C84.6 32.59 85.13 35.44 85.13 38.52C85.13 41.6 84.6 44.4 83.54 47.04C82.48 49.68 80.99 51.97 79.07 53.91C77.15 55.85 74.9 57.37 72.32 58.47C69.74 59.57 66.91 60.12 63.83 60.12C60.75 60.12 57.97 59.57 55.37 58.47C52.77 57.37 50.51 55.85 48.59 53.91C46.67 51.97 45.18 49.68 44.12 47.04C43.06 44.4 42.53 41.56 42.53 38.52C42.53 35.48 43.06 32.59 44.12 29.97ZM50 46.98C51.38 49.46 53.27 51.42 55.67 52.86C58.07 54.3 60.79 55.02 63.83 55.02C66.87 55.02 69.64 54.3 72.02 52.86C74.4 51.42 76.28 49.46 77.66 46.98C79.04 44.5 79.73 41.68 79.73 38.52C79.73 35.36 79.04 32.54 77.66 30.06C76.28 27.58 74.4 25.62 72.02 24.18C69.64 22.74 66.91 22.02 63.83 22.02C60.75 22.02 58.07 22.74 55.67 24.18C53.27 25.62 51.38 27.58 50 30.06C48.62 32.54 47.93 35.36 47.93 38.52C47.93 41.68 48.62 44.5 50 46.98Z" fill="#484187"/>
<path d="M102.8 51.24C103.86 52.52 105.05 53.52 106.37 54.24C107.69 54.96 109.19 55.32 110.87 55.32C113.11 55.32 114.91 54.7 116.27 53.46C117.63 52.22 118.31 50.64 118.31 48.72C118.31 46.8 117.87 45.34 116.99 44.22C116.11 43.1 114.96 42.19 113.54 41.49C112.12 40.79 110.61 40.16 109.01 39.6C107.97 39.24 106.81 38.77 105.53 38.19C104.25 37.61 103.03 36.87 101.87 35.97C100.71 35.07 99.7599 33.96 99.0199 32.64C98.2799 31.32 97.9099 29.7 97.9099 27.78C97.9099 25.7 98.4299 23.84 99.4699 22.2C100.51 20.56 101.95 19.27 103.79 18.33C105.63 17.39 107.73 16.92 110.09 16.92C112.45 16.92 114.36 17.35 116.06 18.21C117.76 19.07 119.21 20.17 120.41 21.51C121.61 22.85 122.55 24.26 123.23 25.74L118.85 28.26C118.33 27.22 117.67 26.2 116.87 25.2C116.07 24.2 115.1 23.38 113.96 22.74C112.82 22.1 111.43 21.78 109.79 21.78C107.51 21.78 105.85 22.33 104.81 23.43C103.77 24.53 103.25 25.76 103.25 27.12C103.25 28.28 103.55 29.35 104.15 30.33C104.75 31.31 105.76 32.23 107.18 33.09C108.6 33.95 110.53 34.8 112.97 35.64C114.09 36.04 115.27 36.56 116.51 37.2C117.75 37.84 118.9 38.65 119.96 39.63C121.02 40.61 121.89 41.79 122.57 43.17C123.25 44.55 123.59 46.2 123.59 48.12C123.59 50.04 123.24 51.62 122.54 53.1C121.84 54.58 120.88 55.84 119.66 56.88C118.44 57.92 117.06 58.72 115.52 59.28C113.98 59.84 112.37 60.12 110.69 60.12C108.41 60.12 106.3 59.63 104.36 58.65C102.42 57.67 100.72 56.37 99.2599 54.75C97.7999 53.13 96.6099 51.4 95.6899 49.56L99.7699 46.8C100.73 48.48 101.74 49.96 102.8 51.24Z" fill="#484187"/>
<path d="M142.16 47.1C143.62 49.58 145.53 51.52 147.89 52.92C150.25 54.32 152.81 55.02 155.57 55.02C157.57 55.02 159.4 54.76 161.06 54.24C162.72 53.72 164.23 52.99 165.59 52.05C166.95 51.11 168.11 50.02 169.07 48.78V55.5C167.31 57.06 165.39 58.22 163.31 58.98C161.23 59.74 158.65 60.12 155.57 60.12C152.65 60.12 149.92 59.59 147.38 58.53C144.84 57.47 142.61 55.97 140.69 54.03C138.77 52.09 137.27 49.8 136.19 47.16C135.11 44.52 134.57 41.64 134.57 38.52C134.57 35.4 135.11 32.52 136.19 29.88C137.27 27.24 138.77 24.95 140.69 23.01C142.61 21.07 144.84 19.57 147.38 18.51C149.92 17.45 152.65 16.92 155.57 16.92C158.65 16.92 161.23 17.3 163.31 18.06C165.39 18.82 167.31 19.98 169.07 21.54V28.26C168.11 27.02 166.95 25.93 165.59 24.99C164.23 24.05 162.72 23.32 161.06 22.8C159.4 22.28 157.57 22.02 155.57 22.02C152.81 22.02 150.25 22.72 147.89 24.12C145.53 25.52 143.62 27.45 142.16 29.91C140.7 32.37 139.97 35.24 139.97 38.52C139.97 41.8 140.7 44.62 142.16 47.1Z" fill="#484187"/>
<path d="M190.97 43.68L190.49 44.76L184.25 59.52H178.55L198.05 15.42L217.55 59.52H211.85L205.73 45.12L205.25 43.92L198.05 27L190.97 43.68ZM188.87 42.12H207.47L209.27 46.92H187.07L188.87 42.12Z" fill="#484187"/>
<path d="M233.63 17.52V59.52H228.53V17.52H233.63ZM231.35 17.52H239.93C242.65 17.52 245.08 18.03 247.22 19.05C249.36 20.07 251.06 21.52 252.32 23.4C253.58 25.28 254.21 27.52 254.21 30.12C254.21 32.72 253.58 34.91 252.32 36.81C251.06 38.71 249.36 40.17 247.22 41.19C245.08 42.21 242.65 42.72 239.93 42.72H231.35V38.22H239.93C241.73 38.22 243.32 37.9 244.7 37.26C246.08 36.62 247.16 35.7 247.94 34.5C248.72 33.3 249.11 31.84 249.11 30.12C249.11 28.4 248.72 26.94 247.94 25.74C247.16 24.54 246.08 23.62 244.7 22.98C243.32 22.34 241.73 22.02 239.93 22.02H231.35V17.52ZM241.73 38.82L256.73 59.52H250.43L236.03 38.82H241.73Z" fill="#484187"/>
<path d="M7.26998 24.07C7.95998 24.74 8.73998 25.19 9.61998 25.44C10.5 25.68 11.39 25.68 12.27 25.44C12.91 25.26 13.48 25.02 13.97 24.71C14.46 24.4 14.88 24.03 15.23 23.61C15.58 23.19 15.86 22.74 16.06 22.25L16.65 24.41C16.22 25.07 15.71 25.61 15.1 26.03C14.5 26.46 13.7 26.81 12.71 27.08C11.77 27.34 10.85 27.41 9.93998 27.29C9.02998 27.17 8.17998 26.89 7.38998 26.43C6.59998 25.97 5.91998 25.37 5.33998 24.62C4.75998 23.87 4.32998 22.99 4.05998 21.99C3.78998 20.99 3.70998 20.01 3.81998 19.07C3.93998 18.13 4.21998 17.26 4.65998 16.47C5.10998 15.68 5.68998 15 6.41998 14.43C7.13998 13.87 7.96998 13.45 8.90998 13.2C9.89998 12.93 10.76 12.82 11.5 12.89C12.24 12.95 12.95 13.15 13.66 13.5L14.25 15.66C13.83 15.35 13.36 15.1 12.84 14.91C12.32 14.73 11.77 14.63 11.19 14.6C10.61 14.58 9.99998 14.66 9.35998 14.83C8.46998 15.07 7.70998 15.52 7.07998 16.18C6.43998 16.84 5.99998 17.63 5.74998 18.55C5.49998 19.47 5.50998 20.46 5.79998 21.51C6.08998 22.55 6.56998 23.41 7.25998 24.08L7.26998 24.07Z" fill="#484187"/>
<path d="M20.7899 19.18L20.7299 19.57L20.0199 24.86L18.1899 25.36L20.5799 9.46997L30.7299 21.93L28.8999 22.43L25.6599 18.34L25.3999 18L21.5999 13.19L20.7899 19.18ZM19.9799 18.87L25.9599 17.23L26.9599 18.61L19.8199 20.56L19.9799 18.86V18.87Z" fill="#484187"/>
<path d="M30.34 7.53002L34.04 21.03L32.4 21.48L28.7 7.98002L30.34 7.53002ZM29.6 7.73002L35.6399 6.08002L36.06 7.62002L30.02 9.27002L29.6 7.73002ZM31.08 13.13L36.93 11.53L37.3499 13.07L31.5 14.67L31.08 13.13Z" fill="#484187"/>
<path d="M40.0001 4.88998L43.6901 18.39L42.0501 18.84L38.3501 5.33998L39.9901 4.88998H40.0001ZM39.2701 5.08998L46.0801 3.22998L46.5001 4.76998L39.6901 6.62998L39.2701 5.08998ZM40.7501 10.49L47.1701 8.72998L47.5901 10.27L41.1701 12.03L40.7501 10.49ZM42.5401 17.05L49.3501 15.19L49.7701 16.73L42.9601 18.59L42.5401 17.05Z" fill="#484187"/>
</svg>
