<svg width="615" height="103" viewBox="0 0 615 103" fill="none" xmlns="http://www.w3.org/2000/svg">
<path d="M595.282 13.7714L593.005 15.0704C400.431 13.4696 207.738 17.2093 15.1769 15.0704C14.0778 15.0573 12.9655 15.1098 11.8664 15.0704C10.5896 15.0311 9.2272 15.7331 9.58919 13.7714H595.282Z" fill="#484187"/>
<path d="M595.94 62.5585C595.881 63.044 594.703 64.5333 595.282 65.8127H571.621C571.082 63.4573 573.642 65.1041 574.939 64.2184C575.458 63.8641 575.939 62.1386 576.057 61.4234C576.735 57.4737 576.597 47.5405 576.242 43.3415C576.13 41.9703 575.84 39.0375 574.484 38.5717C573.129 38.1059 571.128 39.4049 571.608 37.1939H584.758C584.942 39.4377 584.429 38.0468 583.666 38.0796C582.218 38.1387 580.27 38.4733 580.144 40.1135C580.901 43.9451 579.052 61.8499 580.441 63.91C581.033 64.7892 588.872 64.7892 590.221 64.3955C592.287 63.7919 593.354 60.7936 594.15 59.1468C594.611 58.1889 594.209 57.0013 595.933 57.3622C595.795 59.0418 596.124 60.9248 595.933 62.565L595.94 62.5585Z" fill="#484187"/>
<path d="M595.288 87.9296H9.59583V89.2286H595.288V87.9296Z" fill="#484187"/>
<path d="M194.305 37.1873C193.673 39.3721 189.705 37.4891 189.705 40.1135V50.1976H203.835C205.467 50.1976 204.967 39.2803 204.105 38.5454C203.315 37.8631 199.551 39.7198 200.215 37.1873H212.707C213.24 39.5296 210.7 37.9156 209.377 38.7685C208.725 39.195 208.784 40.0348 208.732 40.7302C208.159 47.8357 209.219 55.6826 208.758 62.8799C209.206 66.0029 213.122 63.0111 212.707 65.7995H200.215V64.5005C202.354 65.1172 204.816 63.8575 204.816 61.5743V51.4901H189.698V62.8733C189.698 65.4977 193.667 63.6147 194.298 65.7995H181.149C181.57 63.8312 184.242 64.8941 185.005 64.4152C186.546 63.4507 185.446 42.856 185.67 39.5361C185.045 37.7056 181.827 39.3065 181.155 37.1742H194.305V37.1873Z" fill="#484187"/>
<path d="M389.36 36.6887C402.583 34.5695 412.31 45.8871 406.545 58.2479C402.859 66.1538 393.29 68.063 385.589 64.8351C373.019 59.5666 375.243 38.9522 389.36 36.6887ZM389.347 37.9812C382.029 39.464 381.528 50.4469 382.456 56.2337C384.411 68.4829 401.957 68.7782 403.339 54.4294C404.267 44.8308 400.733 35.6717 389.347 37.9812Z" fill="#484187"/>
<path d="M58.075 36.7084C70.8496 34.9238 80.044 46.5498 74.5879 58.2479C69.2503 69.6967 50.5589 68.9684 46.2678 57.1653C42.8915 47.8882 48.0119 38.1124 58.075 36.7018V36.7084ZM57.3905 37.9812C48.8477 39.7264 48.6437 55.8007 52.4215 61.4824C56.219 67.1904 66.7494 66.39 69.744 59.9669C74.193 50.4273 70.8102 35.2453 57.3839 37.9812H57.3905Z" fill="#484187"/>
<path d="M321.176 65.8126C322.881 63.4704 325.402 65.3993 325.81 61.6137C326.534 54.9084 325.204 46.9631 325.783 40.1135C325.336 36.9905 321.42 39.9757 321.834 37.1939L330.384 37.5088L346.811 59.3042V40.1135C346.811 39.8904 345.521 38.7488 345.041 38.611C343.395 38.1255 341.743 39.3196 342.211 37.1873H352.07V38.4864C351.004 38.073 348.127 39.2146 348.127 40.1135V66.4556C347.035 66.6918 346.791 66.1079 346.166 65.4715C340.098 59.3304 334.662 48.6033 328.679 41.7996C328.238 41.2945 327.837 40.5006 327.1 40.435V62.8799C327.1 63.103 328.39 64.2446 328.87 64.3824C330.515 64.8679 332.167 63.6738 331.7 65.8061H321.183L321.176 65.8126Z" fill="#484187"/>
<path d="M143.693 65.8126C145.398 63.4704 147.919 65.3993 148.327 61.6137C149.071 54.764 147.781 46.5498 148.215 39.5427C147.662 37.9353 144.918 39.0637 144.352 37.1939C146.675 37.5416 151.578 36.4197 153.276 37.7909L169.335 59.3042V40.1135C169.335 39.8904 168.045 38.7488 167.565 38.611C165.919 38.1255 164.267 39.3196 164.734 37.1873H174.594V38.4864C173.527 38.073 170.651 39.2146 170.651 40.1135V66.4556L168.795 65.3599L149.61 39.7854V62.8799C149.61 64.6645 154.619 64.0871 154.869 65.8061H143.693V65.8126Z" fill="#484187"/>
<path d="M424.374 52.1528V63.536C424.374 65.1959 429.369 63.5229 428.316 65.8126H415.825C415.41 63.0243 419.326 66.0095 419.774 62.893C419.339 55.8925 420.326 48.3081 419.8 41.3863C419.727 40.3956 419.879 39.6345 419.168 38.7619C418.016 37.3448 416.068 38.5389 415.825 37.2004C422.683 37.0823 436.569 34.0381 438.044 43.5383C439.274 51.4639 430.541 53.0385 424.367 52.1528H424.374ZM424.374 51.4967C428.178 50.1583 431.897 51.9953 433.266 46.9631C435.036 40.4612 430.725 36.879 424.374 37.8369V51.4967Z" fill="#484187"/>
<path d="M283.05 53.4519C283.451 55.9057 280.983 53.7668 279.871 55.8335C278.64 58.1167 279.259 61.3381 279.088 63.8378C272.717 64.7367 269.367 67.7744 262.687 65.4715C244.956 59.3633 255.434 30.0228 272.987 37.7188C274.895 38.552 275.922 40.0282 277.791 40.435L279.107 37.8369V46.9434C277.12 47.2715 278.081 46.4186 277.745 45.3951C274.816 36.4853 263.496 34.7073 259.712 43.0331C255.974 51.2605 258.093 66.9674 270.203 65.1172C274.79 64.4152 276.409 59.8619 275.073 55.8072C274.349 53.6093 270.65 56.0631 271.216 53.4453H283.05V53.4519Z" fill="#484187"/>
<path d="M133.828 37.1873L134.479 44.3453C132.525 43.1053 132.656 39.3524 130.083 38.6176C129.089 38.3355 123.186 37.6794 122.416 37.9287C122.067 38.0402 121.336 38.611 121.336 38.821V50.2042C125.483 50.3354 129.287 51.0309 128.569 45.6509C130.432 45.9724 130.208 55.0134 129.879 55.407C128.359 57.185 128.628 52.9991 128.484 52.5727C128.043 51.2736 124.311 51.2802 122.672 51.1293C122.106 51.0768 121.336 51.418 121.336 51.8379V62.2435C121.336 65.3009 129.089 64.8941 131.235 64.2315C134.815 63.1227 134.769 58.8449 137.112 56.7126L136.46 65.8192H112.793C113.215 63.8509 115.887 64.9138 116.65 64.4348C117.104 64.1462 117.374 61.7252 117.427 60.9707C117.802 55.9384 117.973 45.6575 117.341 40.8155C116.848 37.0758 115.136 39.6149 113.452 37.1939H133.828V37.1873Z" fill="#484187"/>
<path d="M311.311 37.1873L311.962 44.3387C309.975 44.6799 310.942 43.7942 310.6 42.7903C310.113 41.3338 309.238 39.0769 307.566 38.6045C307.085 38.4733 300.886 37.745 300.471 37.7975C299.905 37.8631 298.813 38.4011 298.813 38.8144V50.1976C303.301 50.3354 306.243 51.044 306.368 45.6444L306.664 52.5136L307.355 55.3939C305.091 56.0303 306.289 52.2446 305.302 51.5754L298.806 51.4967V62.8799C298.806 63.0046 299.523 64.448 299.892 64.5333C301.162 64.8285 307.368 64.6317 308.698 64.2183C311.475 63.3523 312.265 60.4852 313.101 58.1364C313.476 57.0866 312.739 56.3912 314.575 56.7061L313.924 65.8126H290.257C291.961 63.4704 294.482 65.3993 294.89 61.6137C295.384 57.021 295.397 45.336 294.804 40.8089C294.311 37.0692 292.6 39.6083 290.915 37.1873H311.291H311.311Z" fill="#484187"/>
<path d="M93.0753 52.1528V63.536C93.0753 64.8482 97.5442 64.0149 97.6758 65.8126H84.526C85.9608 63.6344 88.2643 65.3534 88.9883 62.0926C88.929 58.8777 89.8109 39.6805 88.4091 38.552C87.876 38.1255 84.8814 39.1556 84.526 37.1873H100.631C102.697 37.1873 105.666 39.897 106.363 41.9177C109.509 50.9981 100.282 53.2813 93.0688 52.1462L93.0753 52.1528ZM93.0753 51.4967C105.758 53.0844 105.659 36.1179 93.0753 37.8368V51.4967Z" fill="#484187"/>
<path d="M526.92 64.507C525.577 66.0489 525.485 61.9024 524.616 61.9155C516.89 69.9395 502.68 65.5765 501.344 54.3639C499.567 39.4377 512.855 30.6986 524.939 40.4416C525.551 39.7002 524.814 36.5903 526.92 37.1873V47.593C524.853 48.085 525.801 45.8412 525.301 44.3125C523.333 38.2896 515.521 34.8779 510.249 39.2278C504.977 43.5777 504.734 54.7706 507.946 60.1834C511.598 66.3441 520.411 66.0751 524.182 60.1703C525.38 58.2939 525.182 55.9385 526.92 54.7444V64.5005V64.507Z" fill="#484187"/>
<path d="M35.2307 65.1632L33.5787 62.5519C28.1753 66.39 23.1997 67.8138 16.8881 64.7761C2.71157 57.9527 11.2083 30.6527 28.6624 37.5154C29.6562 37.9091 33.4537 40.9796 33.921 40.4416L35.2373 37.1874V48.2425L33.0785 42.8822C30.6829 37.6663 22.3573 35.8621 18.1386 40.1004C14.4793 43.7811 14.4266 50.2305 14.8347 55.0987C15.6705 65.0319 26.734 68.9226 32.8942 60.5508L35.2438 54.7444V65.15L35.2307 65.1632Z" fill="#484187"/>
<path d="M552.555 65.8127C552.818 64.0347 555.385 64.7957 555.846 64.507C556.787 63.9231 553.371 56.8898 553.134 55.4792C551.199 55.6301 542.716 54.8297 541.978 55.8007C540.991 57.1063 539.339 62.5453 540.353 63.9166C541.083 64.9007 543.288 63.7525 542.696 65.8127H534.811C534.304 63.8706 536.253 64.5989 537.266 63.6869C537.7 63.2998 538.234 62.0336 538.556 61.4037C542.492 53.8193 545.111 44.4175 548.619 36.5444C549.804 36.9118 550.212 38.3552 550.705 39.3524C554.161 46.3464 556.352 55.2627 560.091 61.9417C560.387 62.4732 560.657 63.1621 561.071 63.5754C562.315 64.822 564.165 63.8641 563.737 65.8127H552.561H552.555ZM552.555 54.1014L547.625 42.3902L542.696 54.1014H552.555Z" fill="#484187"/>
<path d="M237.032 65.8126L240.974 63.5163L237.723 55.6957C236.881 55.0986 226.844 55.2167 226.449 55.7875C225.942 56.5158 224.383 61.922 224.501 62.8799C224.777 65.045 227.127 63.9821 227.825 65.8061H219.282L222.691 62.355C226.449 55.0593 228.7 46.6482 232.307 39.3459C232.8 38.3486 233.208 36.9118 234.393 36.5378L244.779 62.3616L248.201 65.8061H237.026L237.032 65.8126ZM237.032 54.1014C235.768 50.7816 234.63 47.2124 233.103 44.0041C232.8 43.3677 232.734 42.4623 231.78 42.3901C230.859 46.3857 228.746 50.2764 227.173 54.1014H237.032Z" fill="#484187"/>
<path d="M473.018 37.1873V43.6892C471.425 43.0659 471.629 41.0648 470.708 39.7986C468.569 36.8724 464.37 38.0337 461.184 37.8368V62.8799C461.184 64.6645 466.199 64.0871 466.443 65.8061H451.983V64.507C453.24 64.9007 457.242 64.2643 457.242 62.8799V37.8368C454.063 38.0337 449.858 36.8724 447.719 39.7986C446.791 41.0648 447.001 43.0725 445.415 43.6892V37.1873H473.018Z" fill="#484187"/>
<path d="M493.394 37.1873C493.177 38.5323 490.445 37.6072 489.596 38.6373C489.327 38.9588 488.925 40.8877 488.866 41.4782C488.333 46.3857 488.385 55.3283 488.767 60.3146C488.872 61.6858 489.057 63.9362 490.544 64.4152C491.9 64.8547 493.881 63.6279 493.401 65.8126H480.251C482.047 63.0505 484.252 66.3506 484.799 62.191C485.391 57.6771 485.424 45.2638 484.891 40.7302C484.805 40.0085 484.891 39.2999 484.213 38.7947L480.251 37.1873H493.401H493.394Z" fill="#484187"/>
</svg>
