<svg width="389" height="101" viewBox="0 0 389 101" fill="none" xmlns="http://www.w3.org/2000/svg">
<path d="M382.925 66.7123V84.1155H377.84C377.309 80.6962 379.004 70.3581 376.77 68.1443C375.024 66.4128 369.852 68.0859 369.852 69.2475V84.1155H364.766V63.0885C366.49 62.5843 368.731 63.7679 370.121 63.6145C371.001 63.5195 371.954 62.5697 373.154 62.3871C377.44 61.7514 380.626 63.1688 382.918 66.7123H382.925Z" fill="#484187"/>
<path d="M35.8378 0C35.3576 2.148 37.1255 1.00825 38.0567 1.92151C39.1625 3.01013 40.1738 7.97099 39.4608 8.6943C39.2135 8.94271 37.3365 8.78197 36.8927 7.9856C36.6599 7.57646 37.2419 6.25405 36.98 5.09238C36.8708 4.59556 35.9542 2.08955 35.1102 2.17723C34.0335 4.12066 35.2194 6.74356 34.9502 8.15365C34.7756 9.05961 26.1471 22.0938 24.9176 23.5477C22.2767 26.6674 17.8606 28.0775 18.3917 32.6292C15.9181 33.4402 16.8348 27.8802 17.315 26.8354C17.8679 25.6226 21.7747 22.6052 23.0552 20.9686C25.8343 17.4105 27.1002 12.457 30.9633 9.98018C31.5672 9.59295 32.8622 9.49067 32.9277 9.4103C33.255 9.01577 30.6214 2.19915 34.39 0H35.845H35.8378Z" fill="#484187"/>
<path d="M219.552 75.4139H204.303C205.547 82.7931 215.216 77.8907 215.871 78.3583C216.038 78.4825 217.37 82.026 217.326 82.2232C216.977 83.8233 210.706 84.7804 209.098 84.7731C207.992 84.7731 201.015 84.2763 200.411 84.1228C199.807 83.9694 200.04 82.5228 199.604 82.6543C199.218 82.7712 198.585 83.5091 197.778 83.7429C181.634 88.4919 183.22 67.5379 198.498 69.5982C197.457 65.4922 190.582 68.5242 189.753 67.8594C189.258 67.4575 188.356 64.1406 188.633 63.768C189.709 62.3286 194.897 62.1752 196.686 62.3506C199.116 62.5844 201.582 64.5278 202.492 64.5205C203.401 64.5132 205.024 63.0154 206.428 62.6647C215.049 60.4875 221.029 66.968 219.552 75.4066V75.4139ZM212.83 68.3489C210.56 66.252 205.184 67.4502 205.031 71.0595H213.739C214.067 70.738 213.208 68.6996 212.83 68.3489ZM198.49 73.9673C196.417 73.8066 192.03 74.7491 191.986 77.2039C191.899 82.3621 200.666 79.8414 198.49 73.9673Z" fill="#484187"/>
<path d="M279.842 66.0474C279.719 66.2155 281.174 68.8091 281.232 70.0366C281.37 72.9956 279.493 77.3719 276.387 78.1537C274.124 78.7236 270.814 77.2843 269.657 79.7683C274.43 78.5848 281.596 78.0952 282.047 84.4954C282.723 94.0884 269.111 93.1386 263.124 89.9166C266.165 81.9163 266.783 86.3512 270.777 86.9868C273.047 87.3448 277.442 87.4398 275.826 84.1228C271.76 83.626 262.564 86.205 263.859 79.4469C264.07 78.3583 265.255 77.5327 265.183 76.634C265.095 75.56 263.437 73.8869 263.16 72.1188C262.222 66.0401 266.245 62.2775 272.203 62.3067C273.557 62.3067 276.074 63.1323 276.518 63.03C277.667 62.7816 277.194 60.2829 278.729 60.9258C279.013 61.0427 281.952 63.9652 282.003 64.1917C282.352 65.7771 280.075 65.7406 279.85 66.0474H279.842ZM274.561 73.0686C277.405 70.2558 272.611 64.3232 269.606 68.4804C266.841 72.2942 271.745 75.8596 274.561 73.0686Z" fill="#484187"/>
<path d="M239.879 65.2511C236.438 65.536 238.635 68.5754 238.446 71.4175C237.951 78.8624 232.408 77.9857 226.813 79.0524C226.66 80.3967 228.348 79.6807 229.141 79.5711C234.015 78.899 239.734 78.7967 239.792 85.2042C239.858 93.3578 224.514 94.2564 220.287 88.8353C221.735 88.4115 222.993 84.9996 223.197 84.8535C223.845 84.3859 226.369 86.7457 227.941 86.9868C228.945 87.1403 234.11 86.9722 234.081 85.9275C233.965 81.6753 223.903 86.9065 221.553 81.741C219.996 78.3218 223.495 78.0807 223.139 76.5902C223.008 76.0569 221.677 75.2167 221.189 74.1427C219.094 69.5544 221.422 63.6072 226.609 62.5259C229.367 61.9487 232.342 63.1762 233.63 62.9351C234.59 62.7524 235.543 60.9186 235.892 60.9259C236.191 60.9259 239.479 64.4474 239.887 65.2511H239.879ZM226.988 73.0687C229.774 75.8523 234.721 72.3088 231.949 68.4731C229.054 64.4766 223.816 69.8978 226.988 73.0687Z" fill="#484187"/>
<path d="M114.985 84.1155V55.1102H126.968C127.237 55.1102 131.093 57.2874 131.646 57.6892C137.728 62.1679 137.655 75.2386 132.715 80.4259C131.529 81.668 127.04 84.1155 125.52 84.1155H114.993H114.985ZM120.071 79.0451C133.646 80.8643 134.308 57.7769 120.071 60.1879V79.0451Z" fill="#484187"/>
<path d="M339.361 53.6636V84.1228C337.157 84.4881 334.792 83.7137 332.726 83.7867C331.496 83.8306 330.165 84.7219 328.834 84.7292C313.73 84.8388 317.528 56.8636 333.548 63.0885C333.905 61.4811 333.032 56.0746 333.643 55.1978C333.905 54.8179 338.364 53.9193 339.368 53.6562L339.361 53.6636ZM333.548 79.0451C333.832 78.6067 333.548 70.1754 333.548 68.5315C333.548 67.779 331.78 67.4137 331.009 67.3772C323.137 66.9972 323.341 79.7611 330.274 79.8049C330.703 79.8049 333.454 79.1839 333.541 79.0451H333.548Z" fill="#484187"/>
<path d="M246.42 75.4139C247.54 78.4898 249.89 80.2287 253.266 79.7611C257.078 79.235 256.882 76.1957 259.493 82.6543C250.559 86.9065 240.069 84.3785 240.571 72.8568C241.167 59.1797 260.97 58.8363 261.698 71.4321C261.756 72.4403 261.734 75.4139 260.585 75.4139H246.427H246.42ZM255.856 71.0595C255.608 66.5735 247.991 66.1132 247.162 69.9855C246.813 71.6074 247.911 70.9864 248.952 71.0595C251.229 71.2275 253.579 70.9426 255.856 71.0595Z" fill="#484187"/>
<path d="M361.87 75.4139H347.349C347.451 78.8989 351.103 80.2214 354.21 79.7392C356.501 79.3885 357.665 76.8459 359.15 79.9583C361.172 84.2032 353.904 85.0215 350.827 84.6854C335.061 82.9612 340.212 57.3824 356.458 63.0519C361.405 64.7762 363.413 70.6795 361.87 75.4139ZM356.785 71.0595C355.221 66.0402 349.372 65.9306 347.349 70.7088L356.785 71.0595Z" fill="#484187"/>
<path d="M284.382 82.4643C282.971 80.8497 283.029 75.3043 284.135 73.5655C286.965 69.0868 294.618 70.0147 295.062 69.6129C295.986 68.7726 294.931 68.3197 294.16 67.9836C291.584 66.8731 288.944 67.4649 286.354 68.1662L285.677 63.1396C290.762 61.7368 299.369 61.3861 300.708 67.9617C301.741 73.0394 299.231 78.4898 303.05 83.0123C300.104 86.7092 297.448 82.9904 296.146 82.9027C295.215 82.8443 292.676 84.8608 290.413 84.7877C289.053 84.7439 285.24 83.4507 284.375 82.4643H284.382ZM292.712 74.1061C289.227 74.5591 286.805 78.5336 290.493 79.6442C295.113 81.0323 298.481 73.3609 292.712 74.1061Z" fill="#484187"/>
<path d="M143.213 63.1762C143.744 63.5488 147.033 73.7774 147.666 75.4139C150.227 74.0404 151.267 64.3159 152.853 63.1981C153.34 62.8547 158.571 62.9058 158.564 63.4538L149.033 88.7403C146.662 91.3413 143.133 92.4592 139.677 92.0938C139.823 91.1148 139.459 87.206 139.677 87.0161C140.245 86.5412 145.141 87.9001 145.148 84.5028C145.156 81.1054 136.556 63.9944 137.502 63.0885C138.812 63.3515 142.449 62.6355 143.22 63.1762H143.213Z" fill="#484187"/>
<path d="M183.241 79.4031C183.482 80.2214 187.105 81.8068 184.682 83.7429C183.271 84.8681 180.222 85.1311 178.876 83.7575C175.85 80.6744 178.222 61.3058 177.385 56.1696C177.603 53.8901 181.495 54.8545 183.241 53.6636V79.4104V79.4031Z" fill="#484187"/>
<path d="M92.4755 63.0885C92.1045 63.1469 88.3941 67.6475 87.4047 68.5389C83.7234 71.8558 80.2604 72.9956 78.5216 78.519C77.2848 82.4424 78.5216 84.7366 79.4092 88.4627C77.3358 89.6682 73.7345 87.6882 72.6141 87.8928C71.9957 88.0097 70.6498 89.8801 69.9732 89.1933C69.5512 88.7622 69.9296 86.7969 71.1664 86.4024C73.2907 85.7302 75.1968 86.7311 77.2339 87.0088C77.1248 83.5822 70.3443 84.3859 68.5473 85.9494C62.487 91.2244 76.1208 94.6291 79.7802 94.9871C82.1229 95.2135 84.6619 94.8702 87.0482 94.9871C88.4596 95.0601 88.1831 94.9067 88.1249 96.441H73.9673C72.4977 96.441 67.0122 93.6062 66.0082 92.0573C61.5048 85.0872 69.6895 81.0981 75.7789 83.3849C73.8436 70.8257 85.8914 69.1818 91.3988 60.9113C93.2031 60.5752 92.2937 62.0802 92.4828 63.0812C94.92 62.6866 97.9393 62.4163 98.2957 65.2438L93.2103 66.6977C94.5344 63.7972 92.9193 65.3899 92.4828 63.0739L92.4755 63.0885Z" fill="#484187"/>
<path d="M305.233 63.0884C305.8 62.5186 310.318 63.578 311.431 63.4903C312.603 63.3953 313.752 62.3578 315.753 62.2994C317.455 62.2482 318.881 62.7085 320.475 63.1031C318.219 70.7087 317.288 66.5004 313.723 67.5452C312.916 67.779 311.039 70.2046 311.039 70.7087V84.1228H305.233V63.0958V63.0884Z" fill="#484187"/>
<path d="M160.732 63.0885C161.299 62.5186 165.817 63.578 166.93 63.4903C168.786 63.3442 176.563 59.8226 174.926 65.2803C173.289 70.738 172.481 66.5735 169.237 67.5525C168.655 67.7279 166.545 69.7955 166.545 69.9782V84.1155H160.739V63.0885H160.732Z" fill="#484187"/>
<path d="M53.9896 48.5858C55.8375 50.5073 49.0933 53.9119 47.6674 54.2261C41.6217 55.5704 35.7433 53.5028 30.0322 55.4681C21.2728 58.4783 22.3204 74.4933 10.8619 73.1855C9.77064 73.0613 7.31889 72.3672 6.80235 71.4174C5.60921 69.2183 12.1205 71.0229 12.8044 70.9279C18.8429 70.0877 20.5889 58.0984 25.3106 54.3868C31.349 49.6452 41.7672 54.175 48.9115 51.1283C50.8612 50.2954 51.6251 48.2497 53.9896 48.5858Z" fill="#484187"/>
<path d="M69.2386 24.6509C68.482 25.4034 66.976 24.0299 66.3212 23.5842C56.5724 16.9502 54.8191 14.6926 42.9532 10.645C42.1965 10.3893 40.3341 10.3674 40.9306 9.07423C41.7018 7.39382 44.7574 7.9637 46.1834 8.16827C52.1054 8.98656 61.9343 14.4077 65.9866 18.8498C66.7068 19.6389 70.1262 23.7742 69.2386 24.6582V24.6509Z" fill="#484187"/>
<path d="M79.9476 40.0595C82.1666 42.3171 79.4675 45.4442 77.9033 47.278C75.5679 50.0251 74.7895 48.4908 73.9237 49.2141C71.8285 50.9603 72.5778 57.0244 67.7907 55.8335C67.7179 54.1458 69.3403 53.4517 70.1188 51.9978C70.7226 50.8726 70.8026 49.2799 71.5011 48.2716C72.0904 47.4241 73.4581 47.278 73.6109 46.6351C73.7928 45.8898 73.7855 43.2669 73.6036 42.5144C73.4217 41.7619 70.5116 42.5582 73.6036 39.1609L72.1558 37.707C73.9601 37.3271 78.7909 38.876 79.9549 40.0595H79.9476Z" fill="#484187"/>
<path d="M289.773 52.3704C299.784 50.1639 299.391 61.7441 291.133 60.9112C286.266 60.4144 285.16 53.3932 289.773 52.3704Z" fill="#484187"/>
<path d="M94.6509 42.0614C94.6945 44.224 92.5629 43.9245 91.6753 45.9702C89.7328 50.4635 90.9914 58.8363 85.8842 61.9414C85.1276 62.4017 82.0065 63.5049 81.5846 63.0812C81.5045 63.0008 81.1917 61.1377 82.0647 60.8966C85.8333 59.8519 85.9352 59.1943 87.041 55.1248C88.3796 50.2005 87.4411 40.9801 94.6436 42.0614H94.6509Z" fill="#484187"/>
<path d="M55.4446 66.7196C55.2918 71.4175 55.2263 82.7785 57.5617 86.5412C58.4274 87.9366 61.0756 86.8188 60.5227 89.1933C56.063 89.5513 55.1827 87.2133 54.2005 83.5457C53.5094 80.952 51.8434 69.1672 52.8837 67.421C53.4803 66.4201 54.5279 66.705 55.4373 66.7196H55.4446Z" fill="#484187"/>
<path d="M115.713 40.6075C114.374 41.9445 107.994 34.8868 107.121 33.6082C104.473 29.7433 103.585 25.7103 104.102 21.0417C106.975 21.0636 106.517 25.3596 107.375 27.5515C107.928 28.9469 108.969 31.1972 109.762 32.4173C110.773 33.9809 117.008 39.3143 115.713 40.6075Z" fill="#484187"/>
<path d="M104.094 67.4429C104.24 71.9727 104.291 77.9564 101.206 81.6241C100.624 82.3182 99.1615 82.4643 98.9942 83.1657C98.5358 85.0434 98.9505 88.7914 99.7435 90.6399C99.1033 90.5595 98.0266 90.8445 97.6264 90.5961C96.2369 89.7339 96.6952 79.856 98.6668 79.0524C100.376 78.351 99.096 80.6378 100.464 80.4917C101.468 76.8386 101.482 72.5718 102.443 69.0137C102.792 67.7205 102.217 67.1288 104.094 67.4429Z" fill="#484187"/>
<path d="M88.1177 25.3815C88.4887 25.7468 87.994 27.3395 87.4483 27.9752C85.3167 30.4885 70.7225 30.6346 69.2457 27.9094C68.5036 26.5505 70.4606 26.7916 71.0718 26.8062C73.3853 26.8354 75.3205 27.6683 77.554 27.588C79.4528 27.5222 87.5429 24.8262 88.1104 25.3888L88.1177 25.3815Z" fill="#484187"/>
<path d="M69.2386 57.2874C71.0865 59.5012 66.2994 69.8613 62.9674 70.9718C55.7794 73.8723 63.6439 67.2311 65.0117 64.3159C66.0375 62.1314 66.1539 59.7496 66.9978 57.7185C67.3034 56.9806 69.1586 57.1998 69.2313 57.2874H69.2386Z" fill="#484187"/>
<path d="M96.1061 31.9132C96.4553 32.2785 93.8508 36.7353 98.0267 40.5052C98.6451 41.0678 104.698 43.8003 103.367 44.9547C97.2847 44.7574 91.3117 39.5847 93.3124 33.0968C93.698 31.8402 95.7132 31.5041 96.1061 31.9059V31.9132Z" fill="#484187"/>
<path d="M35.8378 68.8895C40.1229 66.5004 44.0807 69.3718 47.9875 70.1681C49.006 70.3727 51.6615 70.2193 51.8143 70.3362C51.9016 70.4019 51.8943 72.4403 51.8143 72.5061C50.221 73.8285 42.0509 70.833 39.7737 70.3873C38.777 70.19 36.0415 70.5188 35.8306 70.3289C35.6705 70.1754 35.9251 69.306 35.8306 68.8895C34.2882 69.7517 32.7749 78.3071 27.8496 76.8605C28.6572 74.2303 31.0362 72.7837 32.4912 70.2631C33.1096 69.1964 33.4952 67.9251 33.6625 66.7123C35.4813 66.4931 35.5468 67.5964 35.8306 68.8895H35.8378Z" fill="#484187"/>
<path d="M99.0088 26.1048C98.1503 26.9304 93.2832 23.2042 92.4829 23.9349C91.2315 25.0746 95.0729 25.871 95.393 27.9167C95.6258 29.3925 94.6509 29.2537 93.5742 29.0053C90.4385 28.2893 90.0239 24.512 90.3003 21.7503C90.8169 21.2316 96.4552 22.291 97.5246 22.8755C98.5941 23.46 99.6708 25.4618 99.0088 26.0975V26.1048Z" fill="#484187"/>
<path d="M23.4916 76.1446C23.2079 78.2487 21.9202 79.1108 22.0148 81.5438C22.0512 82.4717 22.6113 85.7448 22.9024 86.5412C23.2297 87.4544 26.249 88.0974 24.9467 89.186C24.823 89.2883 22.284 89.3321 21.7892 89.2225C20.6179 88.9595 16.3183 74.0258 23.4916 76.1372V76.1446Z" fill="#484187"/>
<path d="M48.9114 38.4302C48.1039 39.2704 46.7943 37.9992 46.125 37.232C44.4663 35.3324 41.7817 32.9141 40.5376 31.2118C38.275 28.1286 39.912 27.1496 42.7857 28.9688C44.2407 29.8967 50.2064 37.0859 48.9187 38.4302H48.9114Z" fill="#484187"/>
<path d="M93.9233 89.1933C91.6607 88.1047 93.4577 84.9411 93.1521 82.3694C92.6501 78.2049 90.3803 74.9609 85.9496 76.8678C84.1745 75.0998 91.8208 72.3453 94.1052 77.7811C95.3856 80.8205 94.709 86.0443 93.9233 89.1933Z" fill="#484187"/>
<path d="M38.6096 19.7412C38.7988 19.8508 40.0865 22.3714 40.1738 22.8828C41.1414 28.3405 36.7326 29.4657 32.2147 29.736C31.7273 27.5807 34.3827 28.041 35.7868 27.1423C40.6394 24.0518 35.7359 20.3841 36.5726 19.5878C36.7181 19.4489 38.2459 19.5366 38.6096 19.7412Z" fill="#484187"/>
<path d="M63.4328 36.9836C64.3131 40.4175 60.9228 38.6567 58.3765 39.9134L59.817 45.6779L62.0141 40.2714L64.8878 39.1609C65.8481 42.2806 63.5346 41.8641 62.858 43.2742C61.6285 45.846 62.8144 47.8186 58.3546 48.5858C59.6933 45.7218 58.1436 46.8761 57.6853 45.8606C57.0596 44.4724 55.5173 39.6504 56.2666 38.5252C56.7468 37.8092 62.1014 37.5681 63.4255 36.9836H63.4328Z" fill="#484187"/>
<path d="M27.8497 30.4592C27.8279 35.8 24.1248 38.3864 19.8688 34.4338C19.7306 32.0447 22.2187 34.8283 24.2267 33.7543C25.5871 33.0237 25.6744 30.1597 27.8497 30.4592Z" fill="#484187"/>
<path d="M96.106 92.1011C98.2958 94.7313 90.3295 92.7806 89.5728 92.4591C88.2487 91.8966 86.4808 90.9322 86.67 89.1933C88.045 89.7193 95.7859 91.7212 96.106 92.1011Z" fill="#484187"/>
<path d="M112.81 21.0271V23.2116C116.935 20.3987 114.149 27.1496 112.504 28.3332C111.741 28.8885 109.638 29.4145 109.187 29.0054C107.426 27.4053 113.217 25.1185 112.083 23.9349C111.937 23.7815 109.391 26.1998 108.096 25.3888C105.789 23.2408 112.555 20.5814 112.81 21.0271Z" fill="#484187"/>
<path d="M93.9306 58.0107C94.7527 59.903 92.6428 61.1158 91.7553 60.1879C91.4133 59.8299 92.2063 55.3074 92.4828 55.1102C92.7883 54.891 95.0218 55.7239 95.5675 56.0161C98.9505 57.8061 97.088 59.355 93.9306 58.0107Z" fill="#484187"/>
<path d="M104.094 55.1175L102.996 60.9113L102.639 57.2947C96.3024 61.5323 99.3217 54.7814 104.094 55.1248V55.1175Z" fill="#484187"/>
<path d="M114.985 42.0614C116.615 43.698 110.765 48.3593 108.459 46.4012L112.075 43.1281C112.497 42.2952 114.585 41.6522 114.992 42.0614H114.985Z" fill="#484187"/>
<path d="M103.367 63.0958L101.919 64.5497L103.374 66.7123C100.384 66.3105 98.2377 66.6904 99.0162 63.0958H103.374H103.367Z" fill="#484187"/>
</svg>
