<svg width="90" height="116" viewBox="0 0 90 116" fill="none" xmlns="http://www.w3.org/2000/svg">
<path d="M11.7967 86.1821C26.4551 68.4419 66.4352 77.6742 76.0925 56.4826C77.8257 52.6808 78.5624 43.7184 79.8044 42.1181C81.6367 39.7651 85.6177 41.6684 85.6177 43.0082V112.908L84.3851 114.144H6.46508L4.37305 110.484L4.77918 41.7299C10.0069 35.7928 15.3527 29.8084 20.7788 24.0797C25.9923 18.5782 36.1597 7.14911 41.7369 3.12478C46.2043 -0.0994154 49.6375 3.32836 47.1063 7.68884L11.7967 43.8273V86.1774V86.1821ZM79.0629 107.563V65.6202C60.5652 87.2284 13.0718 70.634 11.8014 107.563H79.0629Z" fill="#484187"/>
<path d="M35.5788 49.1725C36.6981 55.2469 39.7629 65.1372 34.3652 69.7392C25.0667 77.6647 13.2276 64.0483 24.9864 54.5793C26.1246 53.6608 35.1633 48.7511 35.5788 49.1725Z" fill="#484187"/>
<path d="M56.0835 53.282C58.9689 58.8356 55.4979 71.4436 47.975 66.7943C40.3672 62.0929 49.9301 53.3199 56.0835 53.282Z" fill="#484187"/>
<path d="M45.1654 87.2711C46.7568 88.5636 51.602 98.1509 50.3553 99.3346C45.3165 99.1973 39.9943 101.92 35.5316 98.1557C27.4279 91.3191 37.0617 80.6854 45.1654 87.2711Z" fill="#484187"/>
</svg>
