<svg width="129" height="125" viewBox="0 0 129 125" fill="none" xmlns="http://www.w3.org/2000/svg">
<path d="M80.0933 6.10883V41.2298H44.9049V6.10883H9.61035V111.684H44.9049V76.4568H80.0933V111.684H115.388V6.10883H80.0933ZM18.2457 22.7636L28.5899 17.1751L18.2457 17.2811V13.186L18.405 13.027H35.6276V17.7628L25.1772 23.2936L35.6276 23.1346V27.3934H18.2457V22.7636ZM25.6889 30.1925C31.7081 29.7204 36.4433 32.3508 35.951 38.9463C35.5359 44.5011 30.5303 46.1632 25.6599 45.8018C15.3979 45.0455 15.2386 31.0115 25.6889 30.1925ZM35.6276 48.89V53.5728H18.405L18.2457 53.4138V48.89H35.6276ZM35.6276 94.3883L29.2319 97.7944V100.083H35.6276V104.766H18.2457C18.3906 101.817 18.0575 98.6954 18.2409 95.7662C18.3713 93.7813 18.9698 91.4014 21.0695 90.7124C23.0679 90.0572 25.3655 90.3126 26.8811 91.835C27.1273 92.0807 27.8755 93.2755 28.0927 93.2562L35.6276 89.1178V94.3883ZM35.6276 86.7764H18.2457V73.9565L18.405 73.7927H22.088V82.0936H24.7525V75.3921H28.5899V82.0936H31.7901V73.6867H35.6276V86.7764ZM27.8996 71.6681C23.734 71.8849 19.3222 70.8202 18.2795 66.2578C17.4976 62.8276 18.0478 57.7305 22.1894 56.8729L23.5795 61.021C22.45 61.2185 21.9094 61.893 21.7791 63.0058C21.4605 65.7182 22.4259 66.6528 25.0179 66.9804C26.9149 67.2213 31.0613 67.2791 31.9494 65.1738C32.9052 62.9095 31.6164 60.8764 29.1257 61.0258V63.6851H25.9254V56.5549C30.6462 56.3333 35.5455 57.1475 35.951 62.7746C36.3661 68.5366 33.5713 71.3742 27.8996 71.6681Z" fill="#484187"/>
<path d="M25.7129 100.03H21.9817V96.5707C21.9817 96.3106 22.2858 95.5783 22.5175 95.4C23.1015 94.9616 24.511 95.0291 25.0758 95.5012C25.3171 95.6987 25.7129 96.3925 25.7129 96.6767V100.03Z" fill="#484187"/>
<path d="M26.2247 34.7163C28.0541 34.6055 31.2447 34.856 31.9494 36.9228C33.7161 42.0874 23.0244 42.4583 22.0108 38.9655C21.1178 35.887 23.705 34.8705 26.2247 34.7163Z" fill="#484187"/>
</svg>
