<svg width="462" height="117" viewBox="0 0 462 117" fill="none" xmlns="http://www.w3.org/2000/svg">
<g clip-path="url(#clip0_547_3401)">
<path d="M39.907 0.0216498H0V1.05753C7.46875 0.612028 11.2067 4.06013 12.1023 11.3113C11.8666 39.8124 13.7302 69.3748 12.5083 97.8108C12.3996 100.324 12.1929 103.885 11.6382 106.286C10.2822 112.175 5.81185 114.468 0 114.236V115.272H39.907V114.236C34.0227 114.396 29.701 112.233 28.2688 106.286C27.6851 103.859 27.5075 100.027 27.3987 97.4631C26.8657 84.8478 27.8229 71.8559 27.4168 59.2044C33.0111 65.7782 37.9637 73.0439 43.239 79.9328C50.5591 89.4984 66.0875 111.824 77.3088 115.171C83.378 116.982 91.2456 115.663 97.5107 115.269L97.4961 114.254C89.3748 111.328 82.8886 103.903 77.2036 97.6261C63.5387 82.5334 51.6794 65.8362 38.8774 50.0336C50.1421 38.8164 60.457 26.1504 72.1713 15.4186C77.6242 10.4239 85.3069 4.1543 92.2064 1.48492C92.9098 1.21327 93.6204 1.01407 94.3854 1.05753V0.0216498H63.1508V1.05753C74.8071 2.43387 70.0757 11.1012 65.2246 17.1426C55.421 29.3522 41.9954 42.4492 31.0569 54.0177C29.9185 55.2202 28.7039 56.4336 27.4132 57.4731C27.8265 44.3616 26.8512 30.9061 27.3951 17.8308C27.5365 14.4117 27.7721 9.18157 29.1897 6.12102C31.1041 1.98113 35.6433 0.756907 39.907 1.05753V0.0216498ZM148.871 0.0216498H109.312V1.05753C118.597 0.644626 121.001 6.17173 121.476 14.3682C120.276 42.7462 123.013 72.3448 121.476 100.582C121.284 104.117 120.682 109.122 117.995 111.647C115.787 113.722 112.231 114.265 109.312 114.236V115.272H188.086L192.248 87.2383L191.04 87.5897C185.58 97.9955 180.229 108.912 167.623 111.65C161.822 112.911 147.381 113.186 141.409 112.505C139.107 112.241 137.559 110.864 136.964 108.633L136.729 13.3504C137.284 5.57049 140.282 0.514236 148.871 1.05753V0.0216498ZM242.912 0.0216498H203.353V1.05753C211.942 0.510614 214.94 5.57049 215.495 13.3504C214.226 42.2283 217.195 72.5621 215.517 101.273C215.038 109.419 212.395 114.504 203.353 114.236V115.272H242.916V114.236C233.681 114.497 231.227 109.148 230.752 100.926C229.109 72.4245 232.013 42.3587 230.773 13.6945C231.314 5.853 234.142 0.50337 242.916 1.05753V0.0216498H242.912ZM281.26 0.0216498H253.673C253.839 1.47768 256.508 1.27122 257.762 1.65515C266.243 4.24123 268.483 8.90268 268.958 17.4831C270.274 41.2793 267.925 66.2708 268.958 90.1938C268.458 93.0371 268.617 95.9274 268.204 98.7851C267.022 106.938 263.067 114.66 253.673 114.236V115.272H287.336V114.236C274.846 114.504 272.537 102.595 272.051 92.6205L272.073 12.4848L346.499 117.004L347.039 115.812C347.253 82.4899 346.521 49.0955 347.413 15.817C348.366 8.21451 351.089 0.546833 360.211 1.06115V0.0216498H327.936C327.929 1.57909 329.778 0.916273 330.844 1.10099C341.67 2.97354 342.62 12.7963 343.566 21.9852L343.548 88.6219L281.26 0.0216498ZM408.439 2.44474V102.639C408.439 103.925 407.529 107.521 406.974 108.793C405.096 113.085 400.698 114.36 396.293 114.236V115.272H435.856V114.236C430.689 114.32 426.397 112.744 424.732 107.503C424.399 106.449 423.71 103.262 423.71 102.295V2.44474C434.362 2.60048 445.213 1.55011 452.849 10.2428C456.413 14.303 457.769 19.026 460.55 22.9812C461.228 23.9447 462.043 24.5423 461.996 22.9486C461.811 16.6826 461.025 8.15656 460.14 1.93042C460.089 1.57185 459.912 0.0904669 459.582 0.00354004L372.382 0.0614913C372.252 0.680846 372.092 1.29658 372.002 1.93042C371.084 8.32317 370.348 16.2371 369.92 22.6987C369.804 24.4409 370.504 24.4083 371.374 23.108C372.6 21.2825 373.629 18.5226 374.84 16.5269C381.497 5.56324 387.055 2.97716 399.919 2.42663C402.743 2.3071 405.611 2.54615 408.435 2.44112L408.439 2.44474Z" fill="white"/>
<path d="M39.907 0.0217285V1.05761C35.6469 0.756985 31.1077 1.98121 29.1934 6.1211C27.7758 9.18165 27.5437 14.4118 27.3987 17.8309C26.8549 30.9061 27.8301 44.3617 27.4168 57.4732C28.7075 56.4337 29.9221 55.2203 31.0606 54.0178C41.999 42.4529 55.421 29.3523 65.2283 17.1427C70.0793 11.1013 74.8107 2.43395 63.1544 1.05761V0.0217285H94.389V1.05761C93.624 1.01414 92.9134 1.20973 92.21 1.485C85.3105 4.15438 77.6278 10.424 72.1749 15.4187C60.4606 26.1505 50.1457 38.8165 38.881 50.0337C51.683 65.8363 63.5424 82.5371 77.2073 97.6262C82.8922 103.903 89.3748 111.332 97.4998 114.255L97.5143 115.269C91.2456 115.663 83.3817 116.986 77.3124 115.171C66.0912 111.824 50.5627 89.4985 43.2426 79.9329C37.9673 73.0403 33.0148 65.7783 27.4205 59.2045C27.8265 71.856 26.8694 84.8479 27.4023 97.4632C27.5111 100.028 27.6851 103.86 28.2725 106.286C29.7046 112.234 34.0263 114.392 39.9143 114.236V115.272H0V114.236C5.80822 114.468 10.2822 112.179 11.6382 106.29C12.1929 103.885 12.3996 100.328 12.5083 97.8145C13.7302 69.3785 11.8666 39.8198 12.1023 11.315C11.2067 4.06021 7.47237 0.612107 0 1.05761V0.0217285H39.907Z" fill="#484187"/>
<path d="M281.26 0.0217494L343.544 88.622L343.562 21.9853C342.616 12.7964 341.666 2.97364 330.84 1.10109C329.774 0.916372 327.925 1.58281 327.932 0.0217494H360.204V1.05763C351.085 0.543311 348.363 8.20737 347.409 15.8135C346.517 49.092 347.25 82.4864 347.036 115.808L346.495 117L272.065 12.4813L272.044 92.617C272.53 102.592 274.839 114.505 287.329 114.233V115.269H253.665V114.233C263.056 114.66 267.011 106.935 268.193 98.7816C268.607 95.9239 268.447 93.0335 268.947 90.1903C267.918 66.2673 270.267 41.2758 268.947 17.4796C268.472 8.89916 266.228 4.2377 257.752 1.65163C256.497 1.2677 253.829 1.47778 253.662 0.0181274H281.249L281.26 0.0217494Z" fill="#484187"/>
<path d="M408.439 2.44484C405.615 2.54988 402.747 2.31083 399.923 2.43035C387.059 2.98089 381.504 5.56696 374.844 16.5306C373.633 18.5227 372.604 21.2826 371.378 23.1117C370.508 24.4084 369.808 24.441 369.924 22.7024C370.352 16.2409 371.088 8.32689 372.005 1.93414C372.096 1.3003 372.255 0.684569 372.386 0.0652145L459.585 0.00726318C459.915 0.097812 460.093 1.57557 460.144 1.93414C461.025 8.16028 461.812 16.6864 462 22.9523C462.047 24.546 461.228 23.9484 460.554 22.9849C457.773 19.0298 456.417 14.3067 452.853 10.2465C445.217 1.55384 434.366 2.6042 423.714 2.44846V102.299C423.714 103.266 424.403 106.453 424.736 107.507C426.4 112.744 430.693 114.32 435.86 114.24V115.276H396.297V114.24C400.698 114.363 405.096 113.088 406.978 108.796C407.536 107.525 408.443 103.928 408.443 102.643V2.44484H408.439Z" fill="#484187"/>
<path d="M148.871 0.0217285V1.05761C140.282 0.510692 137.284 5.57056 136.729 13.3505L136.965 108.633C137.559 110.864 139.107 112.241 141.409 112.505C147.381 113.186 161.822 112.911 167.623 111.65C180.229 108.912 185.577 97.9992 191.04 87.5897L192.248 87.2384L188.086 115.272H109.312V114.236C112.231 114.265 115.784 113.722 117.995 111.647C120.682 109.122 121.284 104.117 121.476 100.582C123.013 72.3485 120.279 42.7463 121.476 14.3683C121.001 6.17181 118.597 0.648327 109.312 1.05761V0.0217285H148.875H148.871Z" fill="#484187"/>
<path d="M242.912 0.0217285V1.05761C234.138 0.503449 231.31 5.8567 230.77 13.6946C232.013 42.3588 229.106 72.4246 230.748 100.926C231.223 109.148 233.678 114.494 242.912 114.236V115.272H203.349V114.236C212.392 114.504 215.035 109.419 215.513 101.273C217.196 72.5658 214.223 42.2284 215.492 13.3505C214.937 5.57056 211.938 0.514314 203.349 1.05761V0.0217285H242.912Z" fill="#484187"/>
</g>
<defs>
<clipPath id="clip0_547_3401">
<rect width="462" height="117" fill="white"/>
</clipPath>
</defs>
</svg>
