<svg width="207" height="141" viewBox="0 0 207 141" fill="none" xmlns="http://www.w3.org/2000/svg">
<path d="M202.396 95.4675V99.4444C200.007 98.1542 192.206 101.59 192.206 104.086V135.68C192.206 135.879 188.219 135.879 188.219 135.68V95.4675C188.219 95.268 192.069 95.3256 192.211 95.4675C192.49 95.7468 191.824 99.5685 192.428 100.336C194.284 97.1877 198.711 94.7936 202.396 95.4675Z" fill="#484187"/>
<path d="M27.4205 125.509C30.7327 126.875 32.5708 111.885 33.1746 111.38C33.3122 111.264 36.5889 111.246 36.7132 111.371C39.5369 114.164 30.4929 127.464 30.4974 128.387C30.5062 131.393 36.8686 132.297 37.1039 132.634C37.2104 132.785 37.277 135.995 37.1572 136.123C34.9284 138.451 28.1798 131.268 27.6292 131.268C27.2474 131.268 23.5401 134.833 21.3246 135.578C11.4636 138.899 2.06889 133.507 2.57947 122.623C2.95686 114.62 11.7078 107.673 11.7878 106.738C11.841 106.108 6.4466 98.07 5.82946 95.5562C0.852365 75.2594 25.5203 75.4988 27.9888 85.8246C30.1111 94.6961 21.7641 101.83 15.979 107.172C18.0791 109.043 26.4127 125.101 27.4161 125.514L27.4205 125.509ZM14.1276 104.304C19.9305 101.79 30.4574 85.3103 19.9083 82.8408C4.79053 79.3072 8.63989 97.17 14.1276 104.304ZM13.4527 109.615C9.44351 114.128 5.74066 119.12 6.70411 125.616C8.44898 137.413 25.1873 132.394 25.5203 128.387C25.6135 127.274 14.6648 112.058 13.4527 109.615Z" fill="#484187"/>
<path d="M69.9369 28.2993C70.079 28.1575 73.9239 28.0998 73.9239 28.2993V68.5116C73.9239 68.9328 67.7702 69.5091 69.9324 64.0958C66.6691 68.4672 57.048 72.2047 54.535 65.0977C53.5183 62.2248 52.7724 32.0013 53.5493 29.4077C54.162 27.355 57.9803 28.3525 57.9803 28.9644V62.9874C57.9803 69.2209 69.9413 63.6081 69.9413 61.2184C69.9413 57.1041 68.7692 29.4609 69.9413 28.2993H69.9369Z" fill="#484187"/>
<path d="M103.165 114.909H86.7727V125.292C86.7727 136.416 99.1777 134.474 99.1777 128.387V121.98C104.95 120.158 103.533 126.609 102.41 130.284C100.203 137.493 89.6275 138.575 85.4496 133.241C81.9155 128.728 82.0575 108.209 83.4339 102.517C86.2443 90.9054 103.165 92.5192 103.165 106.29V114.909ZM99.1777 112.257V104.525C99.1777 95.7335 86.7727 95.698 86.7727 105.407V112.257H99.1777Z" fill="#484187"/>
<path d="M182.017 114.909H165.625V126.179C165.625 131.233 169.248 134.319 174.132 132.887C179.824 131.215 177.302 122.689 178.025 121.976C178.167 121.834 181.875 121.834 182.017 121.976C182.403 122.361 181.568 128.808 181.271 129.854C179.086 137.599 168.364 138.726 164.102 132.993C160.754 128.489 160.843 107.106 162.379 101.732C165.452 90.9719 182.012 92.2088 182.012 108.059V114.909H182.017ZM178.03 112.257V105.851C178.03 94.8778 165.625 96.3941 165.625 104.525V112.257H178.03Z" fill="#484187"/>
<path d="M112.022 47.7448H95.6304V58.5715C95.6304 63.3908 99.0491 67.0485 104.173 65.7672C109.554 64.4194 107.529 55.3084 108.031 54.8163C108.173 54.6745 111.88 54.6745 112.022 54.8163C112.542 55.3351 111.618 61.4533 111.268 62.6814C108.626 71.8722 94.9333 71.4155 92.3982 61.7947C91.0751 56.7715 91.0307 38.7935 92.6512 33.9521C96.0921 23.6928 112.018 25.7411 112.018 39.5738V47.7493L112.022 47.7448ZM108.035 45.0936V37.8004C108.035 28.1441 95.6304 28.7205 95.6304 37.8004V45.0936H108.035Z" fill="#484187"/>
<path d="M34.8307 27.9668C39.8078 27.1067 44.6428 28.2727 46.4853 33.3535C48.3279 38.4344 48.4211 57.7646 46.5919 63.1203C43.3819 72.5061 29.0011 71.5175 27.4694 58.9484C26.5725 51.5843 25.0496 29.6604 34.8307 27.9668ZM35.2569 31.0481C29.9024 32.4269 30.8348 54.2222 31.4075 58.9971C32.5175 68.2234 41.4816 68.4007 43.3108 60.7351C44.2743 56.7006 44.2654 40.1235 43.3108 36.0802C42.3563 32.0368 39.5947 29.9353 35.2569 31.0525V31.0481Z" fill="#484187"/>
<path d="M155.435 135.675C155.293 135.817 151.448 135.875 151.448 135.675V102.313C151.448 94.204 139.487 100.513 139.487 102.756V135.675C139.487 135.875 135.5 135.875 135.5 135.675V96.1281C135.5 94.9355 141.348 94.4079 139.705 99.44C143.439 94.0488 155.435 92.8916 155.435 101.431C155.435 105.7 156.652 134.469 155.435 135.675Z" fill="#484187"/>
<path d="M128.858 135.675C128.716 135.817 124.871 135.875 124.871 135.675V101.431C124.871 95.0153 113.354 100.136 113.354 102.313V135.675C113.354 135.875 109.367 135.875 109.367 135.675V95.4631C114.615 93.7384 113.057 99.3336 113.572 99.4355C114.149 99.5552 117.816 93.8581 124.103 95.1261C126.079 95.5251 128.858 98.6996 128.858 100.544C128.858 104.92 130.106 134.434 128.858 135.675Z" fill="#484187"/>
<path d="M60.5819 95.5163C62.0249 96.5271 65.963 126.077 67.9432 129.938C69.6615 129.765 72.8315 99.1296 74.8961 96.2124C75.8595 94.8513 77.4934 95.6271 78.7987 95.4675C76.8363 100.074 71.9435 134.341 70.3763 135.671C70.1898 135.826 65.7277 135.795 65.5368 135.649C63.9029 134.39 58.5618 100.025 56.6482 95.4675C57.5184 95.6404 60.0935 95.1749 60.5864 95.5163H60.5819Z" fill="#484187"/>
<path d="M6.58881 12.3917V64.9736H23.4248C23.6024 64.9736 23.6024 68.5071 23.4248 68.5071H2.60181V12.3917C2.60181 12.1922 6.07822 12.5336 6.58881 12.3917Z" fill="#484187"/>
<path d="M85.0012 28.2993V68.5116C85.0012 68.7111 81.0142 68.7111 81.0142 68.5116V28.2993C81.0142 28.0998 84.4906 28.4412 85.0012 28.2993Z" fill="#484187"/>
<path d="M85.0012 16.812V23.4402C85.0012 23.6397 81.0142 23.6397 81.0142 23.4402V16.812C81.0142 16.6125 84.4906 16.9539 85.0012 16.812Z" fill="#484187"/>
<path d="M165.185 3.99463C167.618 5.34686 172.174 4.42025 174.66 4.91237C181.573 6.28234 198.249 14.2982 200.775 21.3032C201.859 24.3047 201.796 27.0491 202.4 30.0683V31.3939C198.844 37.5876 194.222 46.1709 189.538 51.4868C186.443 54.9981 181.546 57.9376 178.088 61.276C173.541 65.6564 170.695 75.0776 161.935 70.653C158.534 68.9372 157.051 63.2977 154.512 61.2672C149.783 57.4853 135.145 52.3469 131.274 47.3281C129.822 45.4483 127.469 35.3797 127.522 32.9634C127.828 18.6741 140.833 9.96218 152.647 5.41336C154.694 4.62419 157.011 5.07198 158.983 4.0035H165.185V3.99463ZM166.073 5.77248C165.305 5.4444 161.593 4.66853 161.194 5.32469C161.056 5.5508 161.469 10.4188 161.642 10.6183C161.758 10.7514 165.034 10.7292 165.176 10.6228C165.376 10.4765 165.714 6.51288 166.069 5.76805L166.073 5.77248ZM160.754 5.32026L156.319 5.76805C156.883 13.0745 161.904 12.8839 160.754 5.32026ZM167.836 30.9461C168.804 30.1525 170.109 9.03557 170.731 6.19367C166.415 2.33205 165.656 10.2548 166.069 10.6183C166.326 10.8445 168.844 10.0775 169.168 11.5006C165.212 7.81191 164.688 19.5519 165.176 19.8978C165.487 20.1194 167.565 19.45 167.836 20.78C164.435 18.1509 164.701 25.8077 164.719 28.5033C164.732 30.5649 165.829 32.5821 167.831 30.9417L167.836 30.9461ZM155.857 6.23357C155.298 5.79021 152.052 6.2513 151.897 7.73211C151.795 8.69862 157.553 23.3293 158.312 26.0958C159.755 31.3363 160.159 36.8162 161.864 41.9901L151.644 9.32818C141.485 5.83455 153.415 20.9042 153.215 24.7658C151.106 23.2717 147.115 10.9509 146.138 10.3878C145.033 9.74937 141.623 10.7913 141.818 12.5469C141.947 13.6775 152.163 28.5254 153.828 31.8994C156.732 37.7871 158.836 44.0694 161.185 50.1877C159.911 50.0725 159.205 45.6566 158.978 45.5369C158.41 45.2355 152.212 47.337 151.022 47.5365L158.53 44.4552C157.198 40.1457 143.763 14.0277 140.957 13.3405C139.82 13.0612 137.645 14.6218 137.889 15.9475C138.32 18.3283 151.852 32.4713 152.776 36.9314C150.05 35.0117 138.946 17.2775 137.427 16.8652C135.909 16.4529 132.463 19.3214 132.814 20.9485C133.001 21.8042 144.86 30.157 145.255 33.1673C143.146 31.9703 133.862 21.8662 132.566 21.7199C131.464 21.5958 129.871 24.2914 130.168 25.3466C130.541 26.6766 149.988 38.6383 150.574 43.7724C147.759 41.3251 133.303 26.7963 130.661 26.7298C129.32 26.6944 128.419 29.523 128.943 30.4496C129.467 31.3762 145.521 39.1305 146.143 43.3335C144.202 41.8128 130.119 30.7289 129.094 30.9727C123.353 32.325 142.475 40.66 142.151 42.6773C140.184 42.1054 130.688 35.0871 129.52 35.4019C129.134 35.5083 128.738 37.3881 128.845 37.796C129.165 38.9842 146.422 47.8778 149.477 51.2784C149.819 51.6597 150.747 52.2759 149.477 52.1651C147.568 50.3473 131.957 40.1901 130.852 40.2477C129.649 40.3054 130.164 42.4689 130.39 42.93C130.914 44.0029 145.228 49.5138 147.008 51.97L131.735 44.6635C130.452 44.3487 131.966 46.4502 132.046 46.5655C133.147 48.2192 153.251 61.1075 153.664 59.9061L150.13 54.8252C151.457 53.5306 153.975 59.6799 154.783 59.6711C155.151 59.6711 155.981 57.911 156.621 57.5385C160.208 55.437 163.281 55.007 167.405 54.8252L158.894 57.1528C158.13 57.3612 155.036 59.9681 155.031 60.345C155.022 61.0765 161.633 69.784 163.614 70.316C171.126 72.3377 172.453 65.3948 176.702 61.214C180.516 57.4632 185.271 54.5193 188.659 50.6045C193.192 45.3685 199.022 36.2664 201.077 29.6338L183.571 49.9572C184.57 54.2045 188.197 46.0956 190.435 45.7542C187.793 49.2256 185.684 52.6528 182.243 55.2508C185.888 49.5183 182.248 50.7464 180.028 55.2508C184.246 46.0246 180.321 49.9971 177.164 55.0469C180.245 48.534 184.152 42.4157 188.304 36.5546C189.613 34.7014 197.108 26.7298 197.321 26.0737C197.632 25.1338 196.948 22.8283 196.207 23.0057C188.202 33.123 180.29 43.4266 174.94 55.2597C174.513 53.8144 178.234 48.1128 178.034 47.7581C177.759 47.2705 173.657 47.0399 173.608 45.5414L178.425 47.2705C178.278 42.4423 195.94 23.8924 195.732 22.3938C195.643 21.7731 193.339 20.1549 192.224 20.5539C191.62 20.7712 185.853 27.6786 189.551 27.8604C186.306 25.7678 186.426 29.2038 184.454 30.955C184.477 28.7205 188.592 26.2422 184.672 25.4131C184.241 26.619 180.179 33.3624 180.254 33.8324C180.294 34.0807 183.5 35.1004 183.784 36.0403C177.941 32.693 178.754 39.0418 176.272 42.4379C182.07 24.9742 174.482 37.2418 173.159 45.0891C172.107 42.4512 176.356 35.5083 176.249 33.8013C175.885 27.9668 170.597 45.2975 170.957 45.0891L174.052 32.724C171.321 31.8107 171.934 32.1521 170.513 34.0408C171.556 32.5068 169.967 30.955 168.702 32.0191C167.436 33.0831 169.274 36.8827 167.414 38.0132L167.854 31.3851C163.662 30.8796 164.835 32.8082 165.19 35.8053C162.029 33.021 166.144 11.8908 165.19 11.0617C165.057 10.9464 161.784 10.9464 161.651 11.0617C160.821 11.7844 163.547 29.7269 163.427 32.9324C163.392 33.9122 162.97 33.7792 162.748 33.1629C161.616 30.0373 161.629 11.7533 160.759 11.0617C160.541 10.8888 157.771 11.4031 157.669 11.7179L161.864 34.4885C159.698 31.6112 158.41 13.1322 157.189 11.9794C156.954 11.7578 155.529 12.0548 155 11.944C157.673 12.9593 156.141 6.45525 155.862 6.23357H155.857ZM173.599 20.35C174.092 19.9022 174.66 9.06217 176.658 7.35969C176.343 6.0917 172.111 5.94095 171.832 6.20697C170.939 7.05821 168.231 29.5318 168.697 30.6713C170.664 35.4861 173.843 22.416 173.479 21.4229C173.097 20.381 170.78 21.0194 170.504 19.9066C171.166 19.8135 173.275 20.6426 173.599 20.3455V20.35ZM180.179 12.7686C180.374 12.6533 181.755 8.9735 181.386 8.40157C176.032 2.95275 173.976 20.084 174.513 20.7623C177.12 24.0653 179.735 14.409 179.175 13.6864C178.616 12.9637 177.146 13.7573 177.146 12.8395C177.95 12.6755 179.579 13.1144 180.179 12.7686ZM184.667 14.5997C184.849 14.5021 186.017 11.2169 185.795 10.6361C184.086 6.20253 180.29 11.7578 180.703 13.0568C180.769 13.2607 184.481 14.6972 184.667 14.5997ZM186.497 11.5627C184.952 12.609 185.302 17.1578 188.397 16.3287C191.492 15.4997 189.209 9.7272 186.497 11.5627ZM193.849 15.1805C191.185 11.4252 188.943 16.9228 189.103 17.2421C190.035 19.1263 195.962 18.1642 193.849 15.1805ZM179.801 22.5534C179.957 22.1411 184.858 16.3465 183.353 14.8302C179.753 11.4474 177.497 20.9352 178.918 22.1145C178.403 22.1544 177.972 21.8795 177.537 22.3761C177.2 22.7618 174.673 31.8284 174.926 32.2718C177.129 36.129 179.579 23.1387 179.801 22.5579V22.5534ZM184.228 24.3224C184.521 22.2342 190.501 15.677 185.253 15.9874C184.277 16.045 179.273 24.4687 184.228 24.3224ZM193.094 19.4544C193.228 19.7514 197.605 22.917 197.974 19.6672C198.493 15.1273 192.233 17.5657 193.094 19.4544ZM185.16 24.7081C186.399 27.7451 191.785 20.1638 191.753 19.6849C191.731 19.2859 189.218 17.6544 188.654 17.8849C188.175 18.0844 184.965 24.2249 185.16 24.7081ZM198.844 24.7613C199.825 24.5131 199.887 19.9377 198.418 20.3455C196.948 20.7534 197.667 25.0628 198.844 24.7613ZM176.68 21.7066C174.287 17.814 171.739 31.2565 172.249 31.6289C172.6 31.8861 174.154 32.0102 174.442 31.7885C174.855 31.4737 176.951 22.15 176.68 21.7066ZM179.797 33.6063C180.25 33.3004 184.454 23.7948 182.581 23.9544C180.179 22.8727 175.437 36.5501 179.797 33.6063ZM200.62 24.3269C199.164 22.5135 198.928 28.1574 199.741 28.7427C200.997 28.4988 200.758 24.5042 200.62 24.3269ZM195.487 33.3358C196.029 32.6486 201.899 27.3284 198.187 26.5436C196.802 26.251 180.743 47.6961 181.133 49.0572C181.16 49.1503 182.78 49.8109 182.909 49.7532C183.855 49.3321 193.738 35.5615 195.492 33.3358H195.487Z" fill="#484187"/>
<path d="M179.801 22.5534C178.975 22.7707 179.135 22.2963 178.913 22.1101C179.344 22.0746 179.81 21.9948 179.801 22.5534Z" fill="#484187"/>
<path d="M169.612 55.2597C169.745 56.071 168.506 55.601 167.845 55.6897C167.712 54.8784 168.95 55.3483 169.612 55.2597Z" fill="#484187"/>
<path d="M170.722 55.6986L170.944 55.9159L170.722 56.1375V55.6986Z" fill="#484187"/>
<path d="M171.601 56.1508L172.054 56.5809V57.0109L171.827 56.807L171.601 56.1508Z" fill="#484187"/>
<path d="M172.937 57.0242L173.159 57.2415L172.937 57.4632V57.0242Z" fill="#484187"/>
<path d="M173.821 57.4631L174.043 57.6848L173.821 57.9065V57.4631Z" fill="#484187"/>
</svg>
